<?xml version="1.0" encoding="UTF-8"?>
<svg width="32px" height="24px" viewBox="0 0 32 24" version="1.1" xmlns="http://www.w3.org/2000/svg" xmlns:xlink="http://www.w3.org/1999/xlink">
    <!-- Generator: Sketch 52.6 (67491) - http://www.bohemiancoding.com/sketch -->
    <title>discord</title>
    <desc>Created with Sketch.</desc>
    <g id="Page-1" stroke="none" stroke-width="1" fill="none" fill-rule="evenodd">
        <g id="discord" transform="translate(0.152093, -0.057309)" fill="#A0A5AA" fill-rule="nonzero">
            <path d="M26.4943399,2.0639322 C26.4856544,2.04710234 26.4712608,2.03391448 26.4537372,2.02673083 C24.4276853,1.09715545 22.2896196,0.434295431 20.0930464,0.0547391638 C20.0521153,0.0471296468 20.0109179,0.0666250094 19.9908489,0.103100949 C19.6997112,0.631514022 19.4354225,1.1742813 19.1989911,1.72933242 C16.8312051,1.36990432 14.4227316,1.36990432 12.0549456,1.72933242 C11.816949,1.17287188 11.5484251,0.62996929 11.2505988,0.103100949 C11.229694,0.0674976185 11.1891319,0.0483128525 11.1483482,0.0547391638 C8.95154279,0.433498594 6.81333827,1.09640845 4.78755104,2.02678397 C4.77020949,2.03413576 4.75557707,2.04668844 4.74567292,2.06270987 C0.694496497,8.1126098 -0.415273617,14.0137574 0.129141911,19.8418308 C0.132236278,19.8706903 0.146907107,19.8970594 0.169797697,19.914905 C2.52876019,21.6615377 5.16728827,22.9947559 7.97278578,23.8576659 C8.01324867,23.8698038 8.05699069,23.8554705 8.08242354,23.82174 C8.68498355,23.0018643 9.21889697,22.1336884 9.67873447,21.2260408 C9.69151487,21.2008478 9.69290586,21.1713904 9.6825563,21.1451052 C9.67220673,21.1188199 9.65110564,21.0982186 9.6245799,21.088502 C8.78263744,20.766356 7.9675388,20.3780166 7.18693334,19.9271283 C7.15813659,19.9101997 7.13967224,19.8800314 7.1376988,19.8466857 C7.13572537,19.81334 7.15050252,19.7812045 7.17710154,19.7609976 C7.34089388,19.6382862 7.5047925,19.5106323 7.6611977,19.381703 C7.68954074,19.3583591 7.72866215,19.353088 7.76217286,19.3680979 C12.8762457,21.7020589 18.4129261,21.7020589 23.4664669,19.3680979 C23.5000797,19.35212 23.5398905,19.3569411 23.5687176,19.3804807 C23.7251759,19.50941 23.8890214,19.6382862 24.0540361,19.7609976 C24.0807773,19.7809973 24.095788,19.8130121 24.0940598,19.8463602 C24.0923316,19.8797083 24.074092,19.9099999 24.0454266,19.9271283 C23.2665962,20.3818095 22.4507587,20.7699056 21.6066108,21.0872797 C21.580098,21.0973689 21.5591421,21.11828 21.5489961,21.1447712 C21.5388502,21.1712623 21.540476,21.2008221 21.553466,21.2260408 C22.0210023,22.1286409 22.5541294,22.995723 23.1485546,23.8203051 C23.1732969,23.8549939 23.2174491,23.8699752 23.2581924,23.8575065 C26.0687172,22.997522 28.7118569,21.6641798 31.0737758,19.914905 C31.0970412,19.8979254 31.1118574,19.8717404 31.1144316,19.8430532 C31.7661996,13.1051935 30.0232621,7.25240775 26.4943399,2.0639322 Z M10.4424787,16.2931387 C8.90276697,16.2931387 7.63409384,14.8801774 7.63409384,13.1448927 C7.63409384,11.4096081 8.87816092,9.99654049 10.4424787,9.99654049 C12.0190197,9.99654049 13.2754164,11.4218845 13.2508104,13.1447864 C13.2508104,14.8801774 12.0066901,16.2931387 10.4424787,16.2931387 Z M20.8259134,16.2931387 C19.2862549,16.2931387 18.0175818,14.8801774 18.0175818,13.1448927 C18.0175818,11.4096081 19.2616488,9.99654049 20.8259134,9.99654049 C22.4025608,9.99654049 23.6589043,11.4218845 23.6342983,13.1447864 C23.6342983,14.8801774 22.4025608,16.2931387 20.8259134,16.2931387 Z" id="Shape"></path>
        </g>
    </g>
</svg>