<?xml version="1.0" encoding="UTF-8"?>
<svg width="26px" height="25px" viewBox="0 0 26 25" version="1.1" xmlns="http://www.w3.org/2000/svg" xmlns:xlink="http://www.w3.org/1999/xlink">
    <!-- Generator: Sketch 52.6 (67491) - http://www.bohemiancoding.com/sketch -->
    <title>github</title>
    <desc>Created with Sketch.</desc>
    <g id="Page-1" stroke="none" stroke-width="1" fill="none" fill-rule="evenodd">
        <path d="M9.04233752,20.1424123 C9.04233752,20.2416664 8.92815661,20.3210502 8.78426734,20.3210502 C8.62050788,20.3359286 8.50632697,20.2565448 8.50632697,20.1424123 C8.50632697,20.0431583 8.62050788,19.963726 8.76439715,19.963726 C8.9132782,19.9488476 9.04233752,20.0282314 9.04233752,20.1424123 Z M7.49890823,19.9190908 C7.53365683,19.8198367 7.67759457,19.7702097 7.80660543,19.8049099 C7.95548647,19.8495936 8.04979719,19.963726 8.0199919,20.06298 C7.99023508,20.1622341 7.84135403,20.2118611 7.71229471,20.1622341 C7.56341366,20.1324772 7.46415963,20.0183448 7.49890823,19.9190908 Z M9.69243205,19.8347151 C9.83636979,19.8198367 9.97032396,19.8843422 9.98525084,19.9786044 C10.0001292,20.0778585 9.90087522,20.1721692 9.75693748,20.2069178 C9.60805643,20.2416664 9.47904557,20.1771125 9.46416716,20.0778585 C9.44924029,19.963726 9.54849432,19.8694638 9.69243205,19.8347151 Z M12.95788,0.817632724 C19.8411569,0.817632724 25.4241963,6.04334787 25.4241963,12.9266248 C25.4241963,18.4302803 22.0594943,23.1398551 17.0967926,24.7874817 C16.4665198,24.9016142 16.2382549,24.5095898 16.2382549,24.1870142 C16.2382549,23.780063 16.2531333,21.7106067 16.2531333,20.0381665 C16.2531333,18.8719316 15.8660523,18.1275264 15.409474,17.735502 C18.1835952,17.4228131 21.1066459,17.0407238 21.1066459,12.2517167 C21.1066459,10.8919171 20.6203108,10.2070739 19.8262785,9.32866606 C19.9552894,9.00609045 20.377119,7.68103942 19.6972192,5.95897225 C18.6600436,5.63145333 16.2729551,7.2989017 16.2729551,7.2989017 C15.2804147,7.02100979 14.2134339,6.87707206 13.1563881,6.87707206 C12.0993424,6.87707206 11.0323615,7.02100979 10.0398212,7.2989017 C10.0398212,7.2989017 7.65278106,5.63639664 6.61555703,5.95897225 C5.93565721,7.6760961 6.35748685,9.00609045 6.48654617,9.32866606 C5.69251391,10.2020822 5.3153195,10.8869738 5.3153195,12.2517167 C5.3153195,17.0257969 8.11430262,17.4278048 10.8884238,17.735502 C10.531148,18.063021 10.2085724,18.6138615 10.0943915,19.4078937 C9.38473486,19.7354611 7.56341366,20.2863016 6.47661108,18.3707182 C5.79671126,17.1896049 4.56097916,17.0903508 4.56097916,17.0903508 C3.34511725,17.075424 4.48159532,17.8545778 4.48159532,17.8545778 C5.29549777,18.2267804 5.86121668,19.6709557 5.86121668,19.6709557 C6.59074352,21.8942363 10.0646347,21.1498311 10.0646347,21.1498311 C10.0646347,22.1919984 10.0795131,23.8892521 10.0795131,24.1969008 C10.0795131,24.5194764 9.85619151,24.9115492 9.2209754,24.7974168 C4.27315216,23.1398551 0.809196095,18.4302803 0.809196095,12.9266248 C0.809196095,6.04334787 6.07460316,0.817632724 12.95788,0.817632724 Z M5.63295179,17.9340101 C5.69745722,17.8694562 5.81158967,17.9042048 5.89102197,17.9836371 C5.97534913,18.0778994 5.99027601,18.1920318 5.92572211,18.2416588 C5.86121668,18.3062127 5.74708424,18.2714641 5.6677004,18.1920318 C5.58332478,18.0977696 5.56844637,17.9836371 5.63295179,17.9340101 Z M5.09698971,17.5320022 C5.13168985,17.4823752 5.21112215,17.4674968 5.31037619,17.4972536 C5.40963022,17.5468806 5.45925724,17.6263129 5.42450863,17.6908183 C5.38976003,17.7603156 5.29050599,17.775194 5.21112215,17.7255669 C5.11186812,17.6759399 5.0622411,17.5965076 5.09698971,17.5320022 Z M6.70487597,19.2987531 C6.76938139,19.2193208 6.91826244,19.2341992 7.02745157,19.3483801 C7.12670561,19.4426423 7.15651089,19.5915234 7.091957,19.6560288 C7.02745157,19.7354611 6.8835623,19.7205827 6.76938139,19.6064018 C6.65524895,19.5121395 6.62549212,19.3632585 6.70487597,19.2987531 Z M6.13915706,18.5692262 C6.2185409,18.5047208 6.34755175,18.5543478 6.41704896,18.6684803 C6.4964328,18.7826127 6.4964328,18.9116236 6.41704896,18.9761775 C6.35254353,19.0258045 6.2185409,18.9761775 6.13915706,18.8619965 C6.05972475,18.7478641 6.05972475,18.6188532 6.13915706,18.5692262 Z" id="github" fill="#A0A5AA"></path>
    </g>
</svg>