<?xml version="1.0" encoding="UTF-8"?>
<svg width="25px" height="25px" viewBox="0 0 25 25" version="1.1" xmlns="http://www.w3.org/2000/svg" xmlns:xlink="http://www.w3.org/1999/xlink">
    <!-- Generator: Sketch 52.6 (67491) - http://www.bohemiancoding.com/sketch -->
    <title>linkedin</title>
    <desc>Created with Sketch.</desc>
    <g id="Page-1" stroke="none" stroke-width="1" fill="none" fill-rule="evenodd">
        <path d="M23.1636366,0.0677489527 C24.1064728,0.0677489527 24.8779223,0.844534667 24.8779223,1.79809563 L24.8779223,22.3374023 C24.8779223,23.2909632 24.1064728,24.067749 23.1636366,24.067749 L2.58687178,24.067749 C1.64398324,24.067749 0.877922279,23.2909632 0.877922279,22.3374023 L0.877922279,1.79809563 C0.877922279,0.844534667 1.64398324,0.0677489527 2.58687178,0.0677489527 L23.1636366,0.0677489527 Z M8.13685085,20.6391775 L8.13685085,9.18561656 L4.57435085,9.18561656 L4.57435085,20.6391775 L8.13685085,20.6391775 Z M6.35293274,7.62132038 C7.49399371,7.62132038 8.41543274,6.69988135 8.41543274,5.55882038 C8.41543274,4.42309563 7.48865749,3.49632038 6.35293274,3.49632038 C5.21187178,3.49632038 4.29043274,4.42309563 4.29043274,5.55882038 C4.29043274,6.69454513 5.21187178,7.62132038 6.35293274,7.62132038 Z M21.4654118,20.6391775 L21.4654118,14.3605956 C21.4654118,11.2749023 20.795769,8.90169845 17.1957585,8.90169845 C15.4654118,8.90169845 14.3029014,9.84987088 13.826147,10.7499127 L13.7779118,10.7499127 L13.7779118,9.18561656 L10.3654014,9.18561656 L10.3654014,20.6391775 L13.9225651,20.6391775 L13.9225651,14.9713308 C13.9225651,13.4766671 14.2064832,12.0302385 16.0600861,12.0302385 C17.8815146,12.0302385 17.9083003,13.739188 17.9083003,15.067749 L17.9083003,20.6391775 L21.4654118,20.6391775 Z" id="linkedin" fill="#A0A5AA"></path>
    </g>
</svg>