<?xml version="1.0" encoding="UTF-8"?>
<svg width="139px" height="92px" viewBox="0 0 139 92" version="1.1" xmlns="http://www.w3.org/2000/svg" xmlns:xlink="http://www.w3.org/1999/xlink">
    <!-- Generator: Sketch 52.6 (67491) - http://www.bohemiancoding.com/sketch -->
    <g id="Page-1" stroke="none" stroke-width="1" fill="none" fill-rule="evenodd">
        <g id="SVG-Layer" transform="translate(0.500000, 0.000000)" fill="#00DC82" fill-rule="nonzero">
            <g id="Group">
                <path d="M77.41938,92 L128.7195,92 C130.34928,92 131.94962,91.57496 133.3609,90.76766 C134.769253,89.9627724 135.940885,88.8012942 136.758,87.4 C137.571791,86.0034318 138.000379,84.415912 138,82.79954 C137.998812,81.1832654 137.568802,79.5962447 136.75386,78.20046 L102.30216,19.05734 C101.485039,17.6563268 100.313593,16.4950342 98.90552,15.69014 C97.4924375,14.8821764 95.8928014,14.4573721 94.26504,14.4578 C92.63618,14.4578 91.03584,14.8833 89.62502,15.6906 C88.2168412,16.4953553 87.0453629,17.6566799 86.22838,19.0578 L77.41938,34.18996 L60.1956,4.59908 C59.3781671,3.19783725 58.2062123,2.0365121 56.79758,1.23188 C55.3842446,0.424178366 53.7844909,-0.000456438323 52.15664,-5.29395592e-23 C50.52732,-5.29395592e-23 48.92652,0.42504 47.51524,1.23234 C46.1067321,2.03693193 44.934803,3.19807293 44.11722,4.59908 L1.24614,78.2 C0.43101728,79.5958766 0.000996899192,81.1830947 -2.11758237e-22,82.79954 C-0.00092,84.4146 0.4278,86.00114 1.242,87.4 C2.05920136,88.8012274 3.23081299,89.9626856 4.6391,90.76766 C6.05252661,91.5755997 7.65245172,92.0003965 9.2805,92 L41.48234,92 C54.24136,92 63.65066,86.4455 70.1247,75.60882 L85.84336,48.6289 L94.26274,34.18996 L119.53054,77.56106 L85.84336,77.56106 L77.41938,92 Z M40.95748,77.54634 L18.48464,77.54128 L52.17136,19.71652 L68.98022,48.6289 L57.72586,67.9535 C53.42624,74.9846 48.54196,77.54634 40.95748,77.54634 Z" id="Shape"></path>
            </g>
        </g>
    </g>
</svg>