<?xml version="1.0" encoding="UTF-8"?>
<svg width="33px" height="34px" viewBox="0 0 33 34" version="1.1" xmlns="http://www.w3.org/2000/svg" xmlns:xlink="http://www.w3.org/1999/xlink">
    <!-- Generator: Sketch 52.6 (67491) - http://www.bohemiancoding.com/sketch -->
    <title>vitejs</title>
    <desc>Created with Sketch.</desc>
    <defs>
        <linearGradient x1="-0.828097821%" y1="7.6518539%" x2="57.6359644%" y2="78.4107719%" id="linearGradient-1">
            <stop stop-color="#41D1FF" offset="0%"></stop>
            <stop stop-color="#BD34FE" offset="100%"></stop>
        </linearGradient>
        <linearGradient x1="43.3760053%" y1="2.24179788%" x2="50.3158848%" y2="89.0299051%" id="linearGradient-2">
            <stop stop-color="#FFEA83" offset="0%"></stop>
            <stop stop-color="#FFDD35" offset="8.33333%"></stop>
            <stop stop-color="#FFA800" offset="100%"></stop>
        </linearGradient>
    </defs>
    <g id="Page-1" stroke="none" stroke-width="1" fill="none" fill-rule="evenodd">
        <g id="docs-copy-2" transform="translate(-702.000000, -652.000000)">
            <g id="Group-17-Copy" transform="translate(683.488079, 633.021870)">
                <g id="vitejs" transform="translate(18.668350, 19.894716)">
                    <path d="M32.7271304,4.86607872 L17.3025163,32.4479693 C16.9840449,33.0174287 16.1658608,33.0207819 15.8426111,32.4540888 L0.112158793,4.86873613 C-0.239998196,4.2511832 0.288076751,3.50315673 0.987884008,3.62823997 L16.4290042,6.38825317 C16.5275049,6.40585754 16.6283528,6.40568988 16.7268535,6.38774181 L31.8450676,3.63219676 C32.5425361,3.50507644 33.0730982,4.24731024 32.7271304,4.86607872 Z" id="Path" fill="url(#linearGradient-1)"></path>
                    <path d="M23.7844456,0.00809400646 L12.3697718,2.24475442 C12.1821595,2.28151402 12.0432526,2.44050664 12.0319355,2.63131286 L11.3297726,14.4902539 C11.313258,14.7695766 11.5697789,14.9863618 11.8423951,14.9234891 L15.0204031,14.1900575 C15.3177493,14.1214843 15.5864256,14.3833702 15.5253133,14.682393 L14.5811322,19.3058875 C14.5175888,19.6170658 14.8097375,19.8831432 15.1136225,19.7908459 L17.0765098,19.1944769 C17.3808139,19.102096 17.6732141,19.3689279 17.6088324,19.6803576 L16.1083532,26.942831 C16.0144632,27.3971077 16.6187123,27.6448263 16.8707063,27.2553506 L17.0390376,26.995225 L26.3403487,8.43284152 C26.4961053,8.12204055 26.227513,7.76764781 25.8861559,7.83352168 L22.6149285,8.46486471 C22.3075227,8.52413276 22.0459721,8.23785216 22.1327364,7.93709407 L24.2678113,0.535595554 C24.3546595,0.234330286 24.0921866,-0.0521983635 23.7844456,0.00809400646 Z" id="Path" fill="url(#linearGradient-2)"></path>
                </g>
            </g>
        </g>
    </g>
</svg>