<?xml version="1.0" encoding="UTF-8"?>
<svg width="255px" height="55px" viewBox="0 0 255 55" version="1.1" xmlns="http://www.w3.org/2000/svg" xmlns:xlink="http://www.w3.org/1999/xlink">
    <!-- Generator: Sketch 52.6 (67491) - http://www.bohemiancoding.com/sketch -->
    <title>button-installation-wizard</title>
    <desc>Created with Sketch.</desc>
    <g id="Page-1" stroke="none" stroke-width="1" fill="none" fill-rule="evenodd">
        <g id="assets-copy" transform="translate(-412.000000, -621.000000)">
            <g id="button-installation-wizard" transform="translate(412.000000, 621.000000)">
                <rect id="Rectangle" fill="#18C595" fill-rule="nonzero" x="0.926009395" y="0.580188187" width="254" height="54" rx="8"></rect>
                <path d="M26.826,35 L26.826,20.612 L29.378,20.612 L29.378,35 L26.826,35 Z M32.81,35 L32.81,24.198 L34.9,24.198 L35.076,25.65 L35.164,25.65 C35.6480024,25.1806643 36.1723305,24.777335 36.737,24.44 C37.3016695,24.102665 37.9579963,23.934 38.706,23.934 C39.8646725,23.934 40.7079974,24.3043296 41.236,25.045 C41.7640026,25.7856704 42.028,26.8453264 42.028,28.224 L42.028,35 L39.498,35 L39.498,28.554 C39.498,27.6593289 39.3660013,27.0286685 39.102,26.662 C38.8379987,26.2953315 38.4053363,26.112 37.804,26.112 C37.3346643,26.112 36.9203351,26.2256655 36.561,26.453 C36.2016649,26.6803345 35.7946689,27.0139978 35.34,27.454 L35.34,35 L32.81,35 Z M48.144,35.264 C47.3959963,35.264 46.6590036,35.1210014 45.933,34.835 C45.2069964,34.5489986 44.5800026,34.1933355 44.052,33.768 L45.24,32.14 C45.7240024,32.5213352 46.2043309,32.8183323 46.681,33.031 C47.157669,33.2436677 47.6746639,33.35 48.232,33.35 C48.8186696,33.35 49.2513319,33.2290012 49.53,32.987 C49.8086681,32.7449988 49.948,32.4333352 49.948,32.052 C49.948,31.8319989 49.8820007,31.6376675 49.75,31.469 C49.6179993,31.3003325 49.4420011,31.1500007 49.222,31.018 C49.0019989,30.8859993 48.7526681,30.7650005 48.474,30.655 C48.1953319,30.5449994 47.9166681,30.4313339 47.638,30.314 C47.2859982,30.1819993 46.9266685,30.0280009 46.56,29.852 C46.1933315,29.6759991 45.8670014,29.4633346 45.581,29.214 C45.2949986,28.9646654 45.0603342,28.6750016 44.877,28.345 C44.6936657,28.0149984 44.602,27.6226689 44.602,27.168 C44.602,26.2146619 44.9539965,25.4373363 45.658,24.836 C46.3620035,24.2346637 47.3226606,23.934 48.54,23.934 C49.2880037,23.934 49.9626637,24.0659987 50.564,24.33 C51.1653363,24.5940013 51.6859978,24.894665 52.126,25.232 L50.96,26.772 C50.5786648,26.4933319 50.1936686,26.2696675 49.805,26.101 C49.4163314,25.9323325 49.0093355,25.848 48.584,25.848 C48.0413306,25.848 47.6416679,25.9616655 47.385,26.189 C47.128332,26.4163345 47,26.698665 47,27.036 C47,27.2560011 47.0623327,27.4429992 47.187,27.597 C47.3116673,27.7510008 47.4766656,27.8866661 47.682,28.004 C47.8873344,28.1213339 48.1256653,28.2313328 48.397,28.334 C48.6683347,28.4366672 48.9506652,28.5393328 49.244,28.642 C49.6106685,28.7740007 49.9773315,28.9243325 50.344,29.093 C50.7106685,29.2616675 51.0443318,29.4706654 51.345,29.72 C51.6456682,29.9693346 51.8876657,30.2736649 52.071,30.633 C52.2543342,30.9923351 52.346,31.4213308 52.346,31.92 C52.346,32.3893357 52.2543342,32.8256647 52.071,33.229 C51.8876657,33.6323353 51.6200018,33.9843318 51.268,34.285 C50.9159982,34.5856682 50.4760026,34.8239991 49.948,35 C49.4199974,35.1760009 48.81867,35.264 48.144,35.264 Z M58.418,35.264 C57.7873302,35.264 57.2556688,35.1686676 56.823,34.978 C56.3903312,34.7873324 56.0383347,34.5196684 55.767,34.175 C55.4956653,33.8303316 55.2976673,33.419669 55.173,32.943 C55.0483327,32.4663309 54.986,31.9346696 54.986,31.348 L54.986,26.2 L53.446,26.2 L53.446,24.308 L55.118,24.198 L55.426,21.25 L57.538,21.25 L57.538,24.198 L60.288,24.198 L60.288,26.2 L57.538,26.2 L57.538,31.348 C57.538,32.6093396 58.0439949,33.24 59.056,33.24 C59.2466676,33.24 59.440999,33.2180002 59.639,33.174 C59.837001,33.1299998 60.0166659,33.0713337 60.178,32.998 L60.618,34.868 C60.3246652,34.9706672 59.9910019,35.0623329 59.617,35.143 C59.2429981,35.2236671 58.8433355,35.264 58.418,35.264 Z M65.172,35.264 C64.2186619,35.264 63.4486696,34.9743362 62.862,34.395 C62.2753304,33.8156638 61.982,33.0493381 61.982,32.096 C61.982,31.5239971 62.1029988,31.0143356 62.345,30.567 C62.5870012,30.1196644 62.9683307,29.7346683 63.489,29.412 C64.0096693,29.0893317 64.6696627,28.8180011 65.469,28.598 C66.2683373,28.3779989 67.2253278,28.2093339 68.34,28.092 C68.3253333,27.8133319 68.2850003,27.5456679 68.219,27.289 C68.1529997,27.0323321 68.0430008,26.805001 67.889,26.607 C67.7349992,26.408999 67.5333346,26.2550006 67.284,26.145 C67.0346654,26.0349995 66.7266685,25.98 66.36,25.98 C65.8319974,25.98 65.3150025,26.0826656 64.809,26.288 C64.3029975,26.4933344 63.8080024,26.7426652 63.324,27.036 L62.4,25.342 C63.0013363,24.9606648 63.6759963,24.6306681 64.424,24.352 C65.1720037,24.0733319 65.9786623,23.934 66.844,23.934 C68.1933401,23.934 69.2016633,24.3336627 69.869,25.133 C70.5363367,25.9323373 70.87,27.0873258 70.87,28.598 L70.87,35 L68.78,35 L68.604,33.812 L68.516,33.812 C68.0319976,34.2226687 67.5150027,34.5673319 66.965,34.846 C66.4149972,35.1246681 65.8173366,35.264 65.172,35.264 Z M65.986,33.284 C66.4260022,33.284 66.8256649,33.1813344 67.185,32.976 C67.5443351,32.7706656 67.9293313,32.4773352 68.34,32.096 L68.34,29.676 C67.606663,29.7640004 66.9906692,29.8813326 66.492,30.028 C65.9933308,30.1746674 65.5900015,30.3396658 65.282,30.523 C64.9739985,30.7063343 64.7540007,30.9153322 64.622,31.15 C64.4899993,31.3846678 64.424,31.6339987 64.424,31.898 C64.424,32.3820024 64.5706652,32.7339989 64.864,32.954 C65.1573348,33.1740011 65.5313311,33.284 65.986,33.284 Z M76.37,35.264 C75.4606621,35.264 74.8226685,34.9926694 74.456,34.45 C74.0893315,33.9073306 73.906,33.1666714 73.906,32.228 L73.906,19.468 L76.436,19.468 L76.436,32.36 C76.436,32.6680015 76.4946661,32.8843327 76.612,33.009 C76.7293339,33.1336673 76.8539993,33.196 76.986,33.196 L77.151,33.196 C77.2023336,33.196 77.2793328,33.1813335 77.382,33.152 L77.712,35.044 C77.374665,35.1906674 76.9273361,35.264 76.37,35.264 Z M82.332,35.264 C81.4226621,35.264 80.7846685,34.9926694 80.418,34.45 C80.0513315,33.9073306 79.868,33.1666714 79.868,32.228 L79.868,19.468 L82.398,19.468 L82.398,32.36 C82.398,32.6680015 82.4566661,32.8843327 82.574,33.009 C82.6913339,33.1336673 82.8159993,33.196 82.948,33.196 L83.113,33.196 C83.1643336,33.196 83.2413328,33.1813335 83.344,33.152 L83.674,35.044 C83.336665,35.1906674 82.8893361,35.264 82.332,35.264 Z M88.448,35.264 C87.4946619,35.264 86.7246696,34.9743362 86.138,34.395 C85.5513304,33.8156638 85.258,33.0493381 85.258,32.096 C85.258,31.5239971 85.3789988,31.0143356 85.621,30.567 C85.8630012,30.1196644 86.2443307,29.7346683 86.765,29.412 C87.2856693,29.0893317 87.9456627,28.8180011 88.745,28.598 C89.5443373,28.3779989 90.5013278,28.2093339 91.616,28.092 C91.6013333,27.8133319 91.5610003,27.5456679 91.495,27.289 C91.4289997,27.0323321 91.3190008,26.805001 91.165,26.607 C91.0109992,26.408999 90.8093346,26.2550006 90.56,26.145 C90.3106654,26.0349995 90.0026685,25.98 89.636,25.98 C89.1079974,25.98 88.5910025,26.0826656 88.085,26.288 C87.5789975,26.4933344 87.0840024,26.7426652 86.6,27.036 L85.676,25.342 C86.2773363,24.9606648 86.9519963,24.6306681 87.7,24.352 C88.4480037,24.0733319 89.2546623,23.934 90.12,23.934 C91.4693401,23.934 92.4776633,24.3336627 93.145,25.133 C93.8123367,25.9323373 94.146,27.0873258 94.146,28.598 L94.146,35 L92.056,35 L91.88,33.812 L91.792,33.812 C91.3079976,34.2226687 90.7910027,34.5673319 90.241,34.846 C89.6909972,35.1246681 89.0933366,35.264 88.448,35.264 Z M89.262,33.284 C89.7020022,33.284 90.1016649,33.1813344 90.461,32.976 C90.8203351,32.7706656 91.2053313,32.4773352 91.616,32.096 L91.616,29.676 C90.882663,29.7640004 90.2666692,29.8813326 89.768,30.028 C89.2693308,30.1746674 88.8660015,30.3396658 88.558,30.523 C88.2499985,30.7063343 88.0300007,30.9153322 87.898,31.15 C87.7659993,31.3846678 87.7,31.6339987 87.7,31.898 C87.7,32.3820024 87.8466652,32.7339989 88.14,32.954 C88.4333348,33.1740011 88.8073311,33.284 89.262,33.284 Z M100.988,35.264 C100.35733,35.264 99.8256688,35.1686676 99.393,34.978 C98.9603312,34.7873324 98.6083347,34.5196684 98.337,34.175 C98.0656653,33.8303316 97.8676673,33.419669 97.743,32.943 C97.6183327,32.4663309 97.556,31.9346696 97.556,31.348 L97.556,26.2 L96.016,26.2 L96.016,24.308 L97.688,24.198 L97.996,21.25 L100.108,21.25 L100.108,24.198 L102.858,24.198 L102.858,26.2 L100.108,26.2 L100.108,31.348 C100.108,32.6093396 100.613995,33.24 101.626,33.24 C101.816668,33.24 102.010999,33.2180002 102.209,33.174 C102.407001,33.1299998 102.586666,33.0713337 102.748,32.998 L103.188,34.868 C102.894665,34.9706672 102.561002,35.0623329 102.187,35.143 C101.812998,35.2236671 101.413335,35.264 100.988,35.264 Z M105.124,35 L105.124,24.198 L107.654,24.198 L107.654,35 L105.124,35 Z M106.4,22.306 C105.945331,22.306 105.571335,22.1740013 105.278,21.91 C104.984665,21.6459987 104.838,21.3013355 104.838,20.876 C104.838,20.4506645 104.984665,20.1023347 105.278,19.831 C105.571335,19.5596653 105.945331,19.424 106.4,19.424 C106.854669,19.424 107.228665,19.5596653 107.522,19.831 C107.815335,20.1023347 107.962,20.4506645 107.962,20.876 C107.962,21.3013355 107.815335,21.6459987 107.522,21.91 C107.228665,22.1740013 106.854669,22.306 106.4,22.306 Z M115.31,35.264 C114.63533,35.264 113.990003,35.1393346 113.374,34.89 C112.757997,34.6406654 112.211669,34.2740024 111.735,33.79 C111.258331,33.3059976 110.880668,32.7120035 110.602,32.008 C110.323332,31.3039965 110.184,30.5046711 110.184,29.61 C110.184,28.7153289 110.323332,27.9160035 110.602,27.212 C110.880668,26.5079965 111.258331,25.9140024 111.735,25.43 C112.211669,24.9459976 112.757997,24.575668 113.374,24.319 C113.990003,24.0623321 114.63533,23.934 115.31,23.934 C115.98467,23.934 116.633664,24.0623321 117.257,24.319 C117.880336,24.575668 118.426664,24.9459976 118.896,25.43 C119.365336,25.9140024 119.742999,26.5079965 120.029,27.212 C120.315001,27.9160035 120.458,28.7153289 120.458,29.61 C120.458,30.5046711 120.315001,31.3039965 120.029,32.008 C119.742999,32.7120035 119.365336,33.3059976 118.896,33.79 C118.426664,34.2740024 117.880336,34.6406654 117.257,34.89 C116.633664,35.1393346 115.98467,35.264 115.31,35.264 Z M115.31,33.196 C116.102004,33.196 116.725331,32.8696699 117.18,32.217 C117.634669,31.5643301 117.862,30.6953388 117.862,29.61 C117.862,28.5099945 117.634669,27.6336699 117.18,26.981 C116.725331,26.3283301 116.102004,26.002 115.31,26.002 C114.517996,26.002 113.898336,26.3283301 113.451,26.981 C113.003664,27.6336699 112.78,28.5099945 112.78,29.61 C112.78,30.6953388 113.003664,31.5643301 113.451,32.217 C113.898336,32.8696699 114.517996,33.196 115.31,33.196 Z M122.966,35 L122.966,24.198 L125.056,24.198 L125.232,25.65 L125.32,25.65 C125.804002,25.1806643 126.328331,24.777335 126.893,24.44 C127.457669,24.102665 128.113996,23.934 128.862,23.934 C130.020672,23.934 130.863997,24.3043296 131.392,25.045 C131.920003,25.7856704 132.184,26.8453264 132.184,28.224 L132.184,35 L129.654,35 L129.654,28.554 C129.654,27.6593289 129.522001,27.0286685 129.258,26.662 C128.993999,26.2953315 128.561336,26.112 127.96,26.112 C127.490664,26.112 127.076335,26.2256655 126.717,26.453 C126.357665,26.6803345 125.950669,27.0139978 125.496,27.454 L125.496,35 L122.966,35 Z M141.468,35 L138.608,24.198 L141.16,24.198 L142.458,29.808 C142.575334,30.3213359 142.674333,30.8346641 142.755,31.348 C142.835667,31.8613359 142.927333,32.3819974 143.03,32.91 L143.118,32.91 C143.220667,32.3819974 143.326999,31.8613359 143.437,31.348 C143.547001,30.8346641 143.667999,30.3213359 143.8,29.808 L145.208,24.198 L147.518,24.198 L148.948,29.808 C149.080001,30.3213359 149.204666,30.8346641 149.322,31.348 C149.439334,31.8613359 149.556666,32.3819974 149.674,32.91 L149.762,32.91 C149.864667,32.3819974 149.96,31.8613359 150.048,31.348 C150.136,30.8346641 150.231333,30.3213359 150.334,29.808 L151.632,24.198 L154.008,24.198 L151.258,35 L148.244,35 L146.99,29.962 C146.872666,29.4486641 146.762667,28.9390025 146.66,28.433 C146.557333,27.9269975 146.447334,27.3880029 146.33,26.816 L146.242,26.816 C146.139333,27.3880029 146.036667,27.9306641 145.934,28.444 C145.831333,28.9573359 145.721334,29.4706641 145.604,29.984 L144.372,35 L141.468,35 Z M156.142,35 L156.142,24.198 L158.672,24.198 L158.672,35 L156.142,35 Z M157.418,22.306 C156.963331,22.306 156.589335,22.1740013 156.296,21.91 C156.002665,21.6459987 155.856,21.3013355 155.856,20.876 C155.856,20.4506645 156.002665,20.1023347 156.296,19.831 C156.589335,19.5596653 156.963331,19.424 157.418,19.424 C157.872669,19.424 158.246665,19.5596653 158.54,19.831 C158.833335,20.1023347 158.98,20.4506645 158.98,20.876 C158.98,21.3013355 158.833335,21.6459987 158.54,21.91 C158.246665,22.1740013 157.872669,22.306 157.418,22.306 Z M161.048,35 L161.048,33.636 L166.152,26.2 L161.62,26.2 L161.62,24.198 L169.32,24.198 L169.32,25.54 L164.238,32.976 L169.496,32.976 L169.496,35 L161.048,35 Z M174.27,35.264 C173.316662,35.264 172.54667,34.9743362 171.96,34.395 C171.37333,33.8156638 171.08,33.0493381 171.08,32.096 C171.08,31.5239971 171.200999,31.0143356 171.443,30.567 C171.685001,30.1196644 172.066331,29.7346683 172.587,29.412 C173.107669,29.0893317 173.767663,28.8180011 174.567,28.598 C175.366337,28.3779989 176.323328,28.2093339 177.438,28.092 C177.423333,27.8133319 177.383,27.5456679 177.317,27.289 C177.251,27.0323321 177.141001,26.805001 176.987,26.607 C176.832999,26.408999 176.631335,26.2550006 176.382,26.145 C176.132665,26.0349995 175.824668,25.98 175.458,25.98 C174.929997,25.98 174.413003,26.0826656 173.907,26.288 C173.400997,26.4933344 172.906002,26.7426652 172.422,27.036 L171.498,25.342 C172.099336,24.9606648 172.773996,24.6306681 173.522,24.352 C174.270004,24.0733319 175.076662,23.934 175.942,23.934 C177.29134,23.934 178.299663,24.3336627 178.967,25.133 C179.634337,25.9323373 179.968,27.0873258 179.968,28.598 L179.968,35 L177.878,35 L177.702,33.812 L177.614,33.812 C177.129998,34.2226687 176.613003,34.5673319 176.063,34.846 C175.512997,35.1246681 174.915337,35.264 174.27,35.264 Z M175.084,33.284 C175.524002,33.284 175.923665,33.1813344 176.283,32.976 C176.642335,32.7706656 177.027331,32.4773352 177.438,32.096 L177.438,29.676 C176.704663,29.7640004 176.088669,29.8813326 175.59,30.028 C175.091331,30.1746674 174.688002,30.3396658 174.38,30.523 C174.071998,30.7063343 173.852001,30.9153322 173.72,31.15 C173.587999,31.3846678 173.522,31.6339987 173.522,31.898 C173.522,32.3820024 173.668665,32.7339989 173.962,32.954 C174.255335,33.1740011 174.629331,33.284 175.084,33.284 Z M183.004,35 L183.004,24.198 L185.094,24.198 L185.27,26.112 L185.358,26.112 C185.739335,25.4079965 186.201331,24.8690019 186.744,24.495 C187.286669,24.1209981 187.843997,23.934 188.416,23.934 C188.929336,23.934 189.339998,24.0073326 189.648,24.154 L189.208,26.354 C189.017332,26.295333 188.841334,26.2513335 188.68,26.222 C188.518666,26.1926665 188.320668,26.178 188.086,26.178 C187.660665,26.178 187.213336,26.3429984 186.744,26.673 C186.274664,27.0030017 185.871335,27.5786626 185.534,28.4 L185.534,35 L183.004,35 Z M194.994,35.264 C193.629993,35.264 192.548337,34.7690049 191.749,33.779 C190.949663,32.788995 190.55,31.3993423 190.55,29.61 C190.55,28.7299956 190.678332,27.9380035 190.935,27.234 C191.191668,26.5299965 191.532665,25.9360024 191.958,25.452 C192.383335,24.9679976 192.870997,24.5940013 193.421,24.33 C193.971003,24.0659987 194.53933,23.934 195.126,23.934 C195.742003,23.934 196.262665,24.0403323 196.688,24.253 C197.113335,24.4656677 197.538665,24.7553315 197.964,25.122 L197.876,23.384 L197.876,19.468 L200.406,19.468 L200.406,35 L198.316,35 L198.14,33.834 L198.052,33.834 C197.655998,34.230002 197.194003,34.5673319 196.666,34.846 C196.137997,35.1246681 195.58067,35.264 194.994,35.264 Z M195.61,33.174 C196.416671,33.174 197.171996,32.7706707 197.876,31.964 L197.876,26.926 C197.494665,26.588665 197.124335,26.3540007 196.765,26.222 C196.405665,26.0899993 196.042668,26.024 195.676,26.024 C194.971996,26.024 194.378002,26.3319969 193.894,26.948 C193.409998,27.5640031 193.168,28.4439943 193.168,29.588 C193.168,30.7613392 193.376998,31.6523303 193.795,32.261 C194.213002,32.8696697 194.817996,33.174 195.61,33.174 Z" id="Installation-wizard" fill="#FFFFFF"></path>
                <path d="M227.778226,21.8915912 C227.997906,21.6719567 228.354045,21.6719567 228.573725,21.8915912 L234.751872,28.0696008 C234.971507,28.2893268 234.971507,28.6454661 234.751872,28.8651464 L228.573817,35.0432017 C228.354091,35.2628362 227.997952,35.2628362 227.778271,35.0432017 L226.858306,34.1232362 C226.635467,33.9004432 226.639129,33.5380326 226.866454,33.3197714 L230.650045,29.6861436 L214.488508,29.6861436 C214.17787,29.6861436 213.926009,29.4342826 213.926009,29.1236449 L213.926009,27.811148 C213.926009,27.5005103 214.17787,27.2486494 214.488508,27.2486494 L230.650045,27.2486494 L226.866362,23.6150216 C226.639129,23.3967604 226.635467,23.0343497 226.85826,22.8115567 L227.778226,21.8915912 Z" id="long-arrow-right" fill="#FFFFFF"></path>
            </g>
        </g>
    </g>
</svg>