<?xml version="1.0" encoding="UTF-8"?>
<svg width="218px" height="55px" viewBox="0 0 218 55" version="1.1" xmlns="http://www.w3.org/2000/svg" xmlns:xlink="http://www.w3.org/1999/xlink">
    <!-- Generator: Sketch 52.6 (67491) - http://www.bohemiancoding.com/sketch -->
    <title>button-examples</title>
    <desc>Created with Sketch.</desc>
    <g id="Page-1" stroke="none" stroke-width="1" fill="none" fill-rule="evenodd">
        <g id="assets-copy" transform="translate(-654.000000, -873.000000)">
            <g id="button-examples" transform="translate(653.835938, 872.667969)">
                <rect id="Rectangle" fill="#18C595" fill-rule="nonzero" x="0.926009395" y="0.580188187" width="217" height="54" rx="8"></rect>
                <path d="M32.854,35.264 C31.8859952,35.264 30.9876708,35.1026683 30.159,34.78 C29.3303292,34.4573317 28.6116697,33.9806698 28.003,33.35 C27.3943303,32.7193302 26.921335,31.9420046 26.584,31.018 C26.246665,30.0939954 26.078,29.0380059 26.078,27.85 C26.078,26.6766608 26.2539982,25.624338 26.606,24.693 C26.9580018,23.761662 27.4383303,22.9733366 28.047,22.328 C28.6556697,21.6826634 29.3743292,21.191335 30.203,20.854 C31.0316708,20.516665 31.9226619,20.348 32.876,20.348 C33.9026718,20.348 34.7716631,20.5349981 35.483,20.909 C36.1943369,21.2830019 36.7773311,21.7046643 37.232,22.174 L35.868,23.824 C35.5013315,23.4719982 35.0943356,23.1750012 34.647,22.933 C34.1996644,22.6909988 33.63867,22.57 32.964,22.57 C32.3186634,22.57 31.7356693,22.6909988 31.215,22.933 C30.6943307,23.1750012 30.2470019,23.5196644 29.873,23.967 C29.4989981,24.4143356 29.2093344,24.9606634 29.004,25.606 C28.7986656,26.2513366 28.696,26.9773293 28.696,27.784 C28.696,29.4266749 29.0663296,30.713662 29.807,31.645 C30.5476704,32.576338 31.6439927,33.042 33.096,33.042 C33.5066687,33.042 33.8953315,32.9870005 34.262,32.877 C34.6286685,32.7669995 34.9293322,32.6093344 35.164,32.404 L35.164,29.302 L32.436,29.302 L32.436,27.212 L37.452,27.212 L37.452,33.548 C36.9679976,34.0320024 36.3263373,34.4389983 35.527,34.769 C34.7276627,35.0990016 33.8366716,35.264 32.854,35.264 Z M44.844,35.264 C44.16933,35.264 43.5240031,35.1393346 42.908,34.89 C42.2919969,34.6406654 41.745669,34.2740024 41.269,33.79 C40.792331,33.3059976 40.4146681,32.7120035 40.136,32.008 C39.8573319,31.3039965 39.718,30.5046711 39.718,29.61 C39.718,28.7153289 39.8573319,27.9160035 40.136,27.212 C40.4146681,26.5079965 40.792331,25.9140024 41.269,25.43 C41.745669,24.9459976 42.2919969,24.575668 42.908,24.319 C43.5240031,24.0623321 44.16933,23.934 44.844,23.934 C45.51867,23.934 46.1676636,24.0623321 46.791,24.319 C47.4143364,24.575668 47.9606643,24.9459976 48.43,25.43 C48.8993357,25.9140024 49.2769986,26.5079965 49.563,27.212 C49.8490014,27.9160035 49.992,28.7153289 49.992,29.61 C49.992,30.5046711 49.8490014,31.3039965 49.563,32.008 C49.2769986,32.7120035 48.8993357,33.3059976 48.43,33.79 C47.9606643,34.2740024 47.4143364,34.6406654 46.791,34.89 C46.1676636,35.1393346 45.51867,35.264 44.844,35.264 Z M44.844,33.196 C45.636004,33.196 46.2593311,32.8696699 46.714,32.217 C47.1686689,31.5643301 47.396,30.6953388 47.396,29.61 C47.396,28.5099945 47.1686689,27.6336699 46.714,26.981 C46.2593311,26.3283301 45.636004,26.002 44.844,26.002 C44.051996,26.002 43.4323356,26.3283301 42.985,26.981 C42.5376644,27.6336699 42.314,28.5099945 42.314,29.61 C42.314,30.6953388 42.5376644,31.5643301 42.985,32.217 C43.4323356,32.8696699 44.051996,33.196 44.844,33.196 Z M60.706,35.264 C60.0753302,35.264 59.5436688,35.1686676 59.111,34.978 C58.6783312,34.7873324 58.3263347,34.5196684 58.055,34.175 C57.7836653,33.8303316 57.5856673,33.419669 57.461,32.943 C57.3363327,32.4663309 57.274,31.9346696 57.274,31.348 L57.274,26.2 L55.734,26.2 L55.734,24.308 L57.406,24.198 L57.714,21.25 L59.826,21.25 L59.826,24.198 L62.576,24.198 L62.576,26.2 L59.826,26.2 L59.826,31.348 C59.826,32.6093396 60.3319949,33.24 61.344,33.24 C61.5346676,33.24 61.728999,33.2180002 61.927,33.174 C62.125001,33.1299998 62.3046659,33.0713337 62.466,32.998 L62.906,34.868 C62.6126652,34.9706672 62.2790019,35.0623329 61.905,35.143 C61.5309981,35.2236671 61.1313355,35.264 60.706,35.264 Z M69.264,35.264 C68.58933,35.264 67.9440031,35.1393346 67.328,34.89 C66.7119969,34.6406654 66.165669,34.2740024 65.689,33.79 C65.2123309,33.3059976 64.8346681,32.7120035 64.556,32.008 C64.2773319,31.3039965 64.138,30.5046711 64.138,29.61 C64.138,28.7153289 64.2773319,27.9160035 64.556,27.212 C64.8346681,26.5079965 65.2123309,25.9140024 65.689,25.43 C66.165669,24.9459976 66.7119969,24.575668 67.328,24.319 C67.9440031,24.0623321 68.58933,23.934 69.264,23.934 C69.93867,23.934 70.5876636,24.0623321 71.211,24.319 C71.8343364,24.575668 72.3806643,24.9459976 72.85,25.43 C73.3193357,25.9140024 73.6969986,26.5079965 73.983,27.212 C74.2690014,27.9160035 74.412,28.7153289 74.412,29.61 C74.412,30.5046711 74.2690014,31.3039965 73.983,32.008 C73.6969986,32.7120035 73.3193357,33.3059976 72.85,33.79 C72.3806643,34.2740024 71.8343364,34.6406654 71.211,34.89 C70.5876636,35.1393346 69.93867,35.264 69.264,35.264 Z M69.264,33.196 C70.056004,33.196 70.6793311,32.8696699 71.134,32.217 C71.5886689,31.5643301 71.816,30.6953388 71.816,29.61 C71.816,28.5099945 71.5886689,27.6336699 71.134,26.981 C70.6793311,26.3283301 70.056004,26.002 69.264,26.002 C68.471996,26.002 67.8523356,26.3283301 67.405,26.981 C66.9576644,27.6336699 66.734,28.5099945 66.734,29.61 C66.734,30.6953388 66.9576644,31.5643301 67.405,32.217 C67.8523356,32.8696699 68.471996,33.196 69.264,33.196 Z M81.54,35 L81.54,20.612 L90.208,20.612 L90.208,22.768 L84.092,22.768 L84.092,26.442 L89.262,26.442 L89.262,28.598 L84.092,28.598 L84.092,32.844 L90.428,32.844 L90.428,35 L81.54,35 Z M91.858,35 L95.29,29.368 L92.078,24.198 L94.806,24.198 L96.016,26.244 C96.1773341,26.5373348 96.3423325,26.8416651 96.511,27.157 C96.6796675,27.4723349 96.8446659,27.7766652 97.006,28.07 L97.094,28.07 C97.2260007,27.7766652 97.3653326,27.4723349 97.512,27.157 C97.6586674,26.8416651 97.7979993,26.5373348 97.93,26.244 L98.964,24.198 L101.582,24.198 L98.392,29.654 L101.824,35 L99.096,35 L97.776,32.866 C97.5999991,32.5433317 97.4203342,32.2206683 97.237,31.898 C97.0536657,31.5753317 96.8666676,31.2600015 96.676,30.952 L96.588,30.952 C96.4266659,31.2600015 96.2690008,31.5716651 96.115,31.887 C95.9609992,32.2023349 95.8033341,32.528665 95.642,32.866 L94.498,35 L91.858,35 Z M106.356,35.264 C105.402662,35.264 104.63267,34.9743362 104.046,34.395 C103.45933,33.8156638 103.166,33.0493381 103.166,32.096 C103.166,31.5239971 103.286999,31.0143356 103.529,30.567 C103.771001,30.1196644 104.152331,29.7346683 104.673,29.412 C105.193669,29.0893317 105.853663,28.8180011 106.653,28.598 C107.452337,28.3779989 108.409328,28.2093339 109.524,28.092 C109.509333,27.8133319 109.469,27.5456679 109.403,27.289 C109.337,27.0323321 109.227001,26.805001 109.073,26.607 C108.918999,26.408999 108.717335,26.2550006 108.468,26.145 C108.218665,26.0349995 107.910668,25.98 107.544,25.98 C107.015997,25.98 106.499003,26.0826656 105.993,26.288 C105.486997,26.4933344 104.992002,26.7426652 104.508,27.036 L103.584,25.342 C104.185336,24.9606648 104.859996,24.6306681 105.608,24.352 C106.356004,24.0733319 107.162662,23.934 108.028,23.934 C109.37734,23.934 110.385663,24.3336627 111.053,25.133 C111.720337,25.9323373 112.054,27.0873258 112.054,28.598 L112.054,35 L109.964,35 L109.788,33.812 L109.7,33.812 C109.215998,34.2226687 108.699003,34.5673319 108.149,34.846 C107.598997,35.1246681 107.001337,35.264 106.356,35.264 Z M107.17,33.284 C107.610002,33.284 108.009665,33.1813344 108.369,32.976 C108.728335,32.7706656 109.113331,32.4773352 109.524,32.096 L109.524,29.676 C108.790663,29.7640004 108.174669,29.8813326 107.676,30.028 C107.177331,30.1746674 106.774002,30.3396658 106.466,30.523 C106.157998,30.7063343 105.938001,30.9153322 105.806,31.15 C105.673999,31.3846678 105.608,31.6339987 105.608,31.898 C105.608,32.3820024 105.754665,32.7339989 106.048,32.954 C106.341335,33.1740011 106.715331,33.284 107.17,33.284 Z M115.09,35 L115.09,24.198 L117.18,24.198 L117.356,25.672 L117.444,25.672 C117.898669,25.1879976 118.393664,24.777335 118.929,24.44 C119.464336,24.102665 120.06933,23.934 120.744,23.934 C121.536004,23.934 122.170331,24.102665 122.647,24.44 C123.123669,24.777335 123.486665,25.2539969 123.736,25.87 C124.249336,25.3126639 124.784664,24.8506685 125.342,24.484 C125.899336,24.1173315 126.522663,23.934 127.212,23.934 C128.356006,23.934 129.199331,24.3043296 129.742,25.045 C130.284669,25.7856704 130.556,26.8453264 130.556,28.224 L130.556,35 L128.004,35 L128.004,28.554 C128.004,27.6593289 127.868335,27.0286685 127.597,26.662 C127.325665,26.2953315 126.911336,26.112 126.354,26.112 C125.67933,26.112 124.924004,26.5593289 124.088,27.454 L124.088,35 L121.558,35 L121.558,28.554 C121.558,27.6593289 121.422335,27.0286685 121.151,26.662 C120.879665,26.2953315 120.458003,26.112 119.886,26.112 C119.21133,26.112 118.456004,26.5593289 117.62,27.454 L117.62,35 L115.09,35 Z M133.636,39.268 L133.636,24.198 L135.726,24.198 L135.902,25.342 L135.99,25.342 C136.444669,24.9606648 136.950664,24.6306681 137.508,24.352 C138.065336,24.0733319 138.644664,23.934 139.246,23.934 C139.92067,23.934 140.518331,24.0623321 141.039,24.319 C141.559669,24.575668 142.003331,24.9459976 142.37,25.43 C142.736668,25.9140024 143.015332,26.49333 143.206,27.168 C143.396668,27.84267 143.492,28.5979958 143.492,29.434 C143.492,30.3580046 143.363668,31.1829964 143.107,31.909 C142.850332,32.6350036 142.509335,33.2436642 142.084,33.735 C141.658665,34.2263358 141.167336,34.6039987 140.61,34.868 C140.052664,35.1320013 139.473336,35.264 138.872,35.264 C138.402664,35.264 137.933336,35.1613344 137.464,34.956 C136.994664,34.7506656 136.540002,34.4573352 136.1,34.076 L136.166,35.88 L136.166,39.268 L133.636,39.268 Z M138.344,33.174 C139.06267,33.174 139.663998,32.8623365 140.148,32.239 C140.632002,31.6156636 140.874,30.6880062 140.874,29.456 C140.874,28.3706612 140.690668,27.5273363 140.324,26.926 C139.957331,26.3246637 139.363337,26.024 138.542,26.024 C137.77933,26.024 136.987337,26.4273293 136.166,27.234 L136.166,32.272 C136.562002,32.609335 136.943331,32.8439993 137.31,32.976 C137.676668,33.1080007 138.021332,33.174 138.344,33.174 Z M148.508,35.264 C147.598662,35.264 146.960668,34.9926694 146.594,34.45 C146.227331,33.9073306 146.044,33.1666714 146.044,32.228 L146.044,19.468 L148.574,19.468 L148.574,32.36 C148.574,32.6680015 148.632666,32.8843327 148.75,33.009 C148.867334,33.1336673 148.991999,33.196 149.124,33.196 L149.289,33.196 C149.340334,33.196 149.417333,33.1813335 149.52,33.152 L149.85,35.044 C149.512665,35.1906674 149.065336,35.264 148.508,35.264 Z M156.626,35.264 C155.877996,35.264 155.181337,35.1356679 154.536,34.879 C153.890663,34.622332 153.326002,34.2520024 152.842,33.768 C152.357998,33.2839976 151.980335,32.6936702 151.709,31.997 C151.437665,31.3003299 151.302,30.5046711 151.302,29.61 C151.302,28.7299956 151.441332,27.9380035 151.72,27.234 C151.998668,26.5299965 152.368998,25.9360024 152.831,25.452 C153.293002,24.9679976 153.824664,24.5940013 154.426,24.33 C155.027336,24.0659987 155.64333,23.934 156.274,23.934 C157.007337,23.934 157.652664,24.0586654 158.21,24.308 C158.767336,24.5573346 159.232998,24.9093311 159.607,25.364 C159.981002,25.8186689 160.263332,26.3613302 160.454,26.992 C160.644668,27.6226698 160.74,28.3119963 160.74,29.06 C160.74,29.3093346 160.729,29.5439989 160.707,29.764 C160.685,29.9840011 160.659333,30.1599993 160.63,30.292 L153.766,30.292 C153.883334,31.2600048 154.224331,32.0043307 154.789,32.525 C155.353669,33.0456693 156.075996,33.306 156.956,33.306 C157.425336,33.306 157.861665,33.236334 158.265,33.097 C158.668335,32.957666 159.067998,32.7633346 159.464,32.514 L160.322,34.098 C159.808664,34.435335 159.23667,34.7139989 158.606,34.934 C157.97533,35.1540011 157.315337,35.264 156.626,35.264 Z M153.744,28.576 L158.54,28.576 C158.54,27.7399958 158.360335,27.083669 158.001,26.607 C157.641665,26.130331 157.088004,25.892 156.34,25.892 C155.694663,25.892 155.130002,26.1193311 154.646,26.574 C154.161998,27.0286689 153.861334,27.6959956 153.744,28.576 Z M166.174,35.264 C165.425996,35.264 164.689004,35.1210014 163.963,34.835 C163.236996,34.5489986 162.610003,34.1933355 162.082,33.768 L163.27,32.14 C163.754002,32.5213352 164.234331,32.8183323 164.711,33.031 C165.187669,33.2436677 165.704664,33.35 166.262,33.35 C166.84867,33.35 167.281332,33.2290012 167.56,32.987 C167.838668,32.7449988 167.978,32.4333352 167.978,32.052 C167.978,31.8319989 167.912001,31.6376675 167.78,31.469 C167.647999,31.3003325 167.472001,31.1500007 167.252,31.018 C167.031999,30.8859993 166.782668,30.7650005 166.504,30.655 C166.225332,30.5449994 165.946668,30.4313339 165.668,30.314 C165.315998,30.1819993 164.956668,30.0280009 164.59,29.852 C164.223331,29.6759991 163.897001,29.4633346 163.611,29.214 C163.324999,28.9646654 163.090334,28.6750016 162.907,28.345 C162.723666,28.0149984 162.632,27.6226689 162.632,27.168 C162.632,26.2146619 162.983996,25.4373363 163.688,24.836 C164.392004,24.2346637 165.352661,23.934 166.57,23.934 C167.318004,23.934 167.992664,24.0659987 168.594,24.33 C169.195336,24.5940013 169.715998,24.894665 170.156,25.232 L168.99,26.772 C168.608665,26.4933319 168.223669,26.2696675 167.835,26.101 C167.446331,25.9323325 167.039335,25.848 166.614,25.848 C166.071331,25.848 165.671668,25.9616655 165.415,26.189 C165.158332,26.4163345 165.03,26.698665 165.03,27.036 C165.03,27.2560011 165.092333,27.4429992 165.217,27.597 C165.341667,27.7510008 165.506666,27.8866661 165.712,28.004 C165.917334,28.1213339 166.155665,28.2313328 166.427,28.334 C166.698335,28.4366672 166.980665,28.5393328 167.274,28.642 C167.640668,28.7740007 168.007331,28.9243325 168.374,29.093 C168.740668,29.2616675 169.074332,29.4706654 169.375,29.72 C169.675668,29.9693346 169.917666,30.2736649 170.101,30.633 C170.284334,30.9923351 170.376,31.4213308 170.376,31.92 C170.376,32.3893357 170.284334,32.8256647 170.101,33.229 C169.917666,33.6323353 169.650002,33.9843318 169.298,34.285 C168.945998,34.5856682 168.506003,34.8239991 167.978,35 C167.449997,35.1760009 166.84867,35.264 166.174,35.264 Z" id="Go-to-Examples" fill="#FFFFFF"></path>
                <path d="M193.778226,21.8915912 C193.997906,21.6719567 194.354045,21.6719567 194.573725,21.8915912 L200.751872,28.0696008 C200.971507,28.2893268 200.971507,28.6454661 200.751872,28.8651464 L194.573817,35.0432017 C194.354091,35.2628362 193.997952,35.2628362 193.778271,35.0432017 L192.858306,34.1232362 C192.635467,33.9004432 192.639129,33.5380326 192.866454,33.3197714 L196.650045,29.6861436 L180.488508,29.6861436 C180.17787,29.6861436 179.926009,29.4342826 179.926009,29.1236449 L179.926009,27.811148 C179.926009,27.5005103 180.17787,27.2486494 180.488508,27.2486494 L196.650045,27.2486494 L192.866362,23.6150216 C192.639129,23.3967604 192.635467,23.0343497 192.85826,22.8115567 L193.778226,21.8915912 Z" id="long-arrow-right" fill="#FFFFFF"></path>
            </g>
        </g>
    </g>
</svg>