<?xml version="1.0" encoding="UTF-8"?>
<svg width="192px" height="55px" viewBox="0 0 192 55" version="1.1" xmlns="http://www.w3.org/2000/svg" xmlns:xlink="http://www.w3.org/1999/xlink">
    <!-- Generator: Sketch 52.6 (67491) - http://www.bohemiancoding.com/sketch -->
    <title>button-guide</title>
    <desc>Created with Sketch.</desc>
    <g id="Page-1" stroke="none" stroke-width="1" fill="none" fill-rule="evenodd">
        <g id="assets-copy" transform="translate(-412.000000, -873.000000)">
            <g id="button-guide" transform="translate(412.000000, 872.667969)">
                <rect id="Rectangle" fill="#18C595" fill-rule="nonzero" x="0.926009395" y="0.580188187" width="191" height="54" rx="8"></rect>
                <path d="M32.854,35.264 C31.8859952,35.264 30.9876708,35.1026683 30.159,34.78 C29.3303292,34.4573317 28.6116697,33.9806698 28.003,33.35 C27.3943303,32.7193302 26.921335,31.9420046 26.584,31.018 C26.246665,30.0939954 26.078,29.0380059 26.078,27.85 C26.078,26.6766608 26.2539982,25.624338 26.606,24.693 C26.9580018,23.761662 27.4383303,22.9733366 28.047,22.328 C28.6556697,21.6826634 29.3743292,21.191335 30.203,20.854 C31.0316708,20.516665 31.9226619,20.348 32.876,20.348 C33.9026718,20.348 34.7716631,20.5349981 35.483,20.909 C36.1943369,21.2830019 36.7773311,21.7046643 37.232,22.174 L35.868,23.824 C35.5013315,23.4719982 35.0943356,23.1750012 34.647,22.933 C34.1996644,22.6909988 33.63867,22.57 32.964,22.57 C32.3186634,22.57 31.7356693,22.6909988 31.215,22.933 C30.6943307,23.1750012 30.2470019,23.5196644 29.873,23.967 C29.4989981,24.4143356 29.2093344,24.9606634 29.004,25.606 C28.7986656,26.2513366 28.696,26.9773293 28.696,27.784 C28.696,29.4266749 29.0663296,30.713662 29.807,31.645 C30.5476704,32.576338 31.6439927,33.042 33.096,33.042 C33.5066687,33.042 33.8953315,32.9870005 34.262,32.877 C34.6286685,32.7669995 34.9293322,32.6093344 35.164,32.404 L35.164,29.302 L32.436,29.302 L32.436,27.212 L37.452,27.212 L37.452,33.548 C36.9679976,34.0320024 36.3263373,34.4389983 35.527,34.769 C34.7276627,35.0990016 33.8366716,35.264 32.854,35.264 Z M44.844,35.264 C44.16933,35.264 43.5240031,35.1393346 42.908,34.89 C42.2919969,34.6406654 41.745669,34.2740024 41.269,33.79 C40.792331,33.3059976 40.4146681,32.7120035 40.136,32.008 C39.8573319,31.3039965 39.718,30.5046711 39.718,29.61 C39.718,28.7153289 39.8573319,27.9160035 40.136,27.212 C40.4146681,26.5079965 40.792331,25.9140024 41.269,25.43 C41.745669,24.9459976 42.2919969,24.575668 42.908,24.319 C43.5240031,24.0623321 44.16933,23.934 44.844,23.934 C45.51867,23.934 46.1676636,24.0623321 46.791,24.319 C47.4143364,24.575668 47.9606643,24.9459976 48.43,25.43 C48.8993357,25.9140024 49.2769986,26.5079965 49.563,27.212 C49.8490014,27.9160035 49.992,28.7153289 49.992,29.61 C49.992,30.5046711 49.8490014,31.3039965 49.563,32.008 C49.2769986,32.7120035 48.8993357,33.3059976 48.43,33.79 C47.9606643,34.2740024 47.4143364,34.6406654 46.791,34.89 C46.1676636,35.1393346 45.51867,35.264 44.844,35.264 Z M44.844,33.196 C45.636004,33.196 46.2593311,32.8696699 46.714,32.217 C47.1686689,31.5643301 47.396,30.6953388 47.396,29.61 C47.396,28.5099945 47.1686689,27.6336699 46.714,26.981 C46.2593311,26.3283301 45.636004,26.002 44.844,26.002 C44.051996,26.002 43.4323356,26.3283301 42.985,26.981 C42.5376644,27.6336699 42.314,28.5099945 42.314,29.61 C42.314,30.6953388 42.5376644,31.5643301 42.985,32.217 C43.4323356,32.8696699 44.051996,33.196 44.844,33.196 Z M60.706,35.264 C60.0753302,35.264 59.5436688,35.1686676 59.111,34.978 C58.6783312,34.7873324 58.3263347,34.5196684 58.055,34.175 C57.7836653,33.8303316 57.5856673,33.419669 57.461,32.943 C57.3363327,32.4663309 57.274,31.9346696 57.274,31.348 L57.274,26.2 L55.734,26.2 L55.734,24.308 L57.406,24.198 L57.714,21.25 L59.826,21.25 L59.826,24.198 L62.576,24.198 L62.576,26.2 L59.826,26.2 L59.826,31.348 C59.826,32.6093396 60.3319949,33.24 61.344,33.24 C61.5346676,33.24 61.728999,33.2180002 61.927,33.174 C62.125001,33.1299998 62.3046659,33.0713337 62.466,32.998 L62.906,34.868 C62.6126652,34.9706672 62.2790019,35.0623329 61.905,35.143 C61.5309981,35.2236671 61.1313355,35.264 60.706,35.264 Z M69.264,35.264 C68.58933,35.264 67.9440031,35.1393346 67.328,34.89 C66.7119969,34.6406654 66.165669,34.2740024 65.689,33.79 C65.2123309,33.3059976 64.8346681,32.7120035 64.556,32.008 C64.2773319,31.3039965 64.138,30.5046711 64.138,29.61 C64.138,28.7153289 64.2773319,27.9160035 64.556,27.212 C64.8346681,26.5079965 65.2123309,25.9140024 65.689,25.43 C66.165669,24.9459976 66.7119969,24.575668 67.328,24.319 C67.9440031,24.0623321 68.58933,23.934 69.264,23.934 C69.93867,23.934 70.5876636,24.0623321 71.211,24.319 C71.8343364,24.575668 72.3806643,24.9459976 72.85,25.43 C73.3193357,25.9140024 73.6969986,26.5079965 73.983,27.212 C74.2690014,27.9160035 74.412,28.7153289 74.412,29.61 C74.412,30.5046711 74.2690014,31.3039965 73.983,32.008 C73.6969986,32.7120035 73.3193357,33.3059976 72.85,33.79 C72.3806643,34.2740024 71.8343364,34.6406654 71.211,34.89 C70.5876636,35.1393346 69.93867,35.264 69.264,35.264 Z M69.264,33.196 C70.056004,33.196 70.6793311,32.8696699 71.134,32.217 C71.5886689,31.5643301 71.816,30.6953388 71.816,29.61 C71.816,28.5099945 71.5886689,27.6336699 71.134,26.981 C70.6793311,26.3283301 70.056004,26.002 69.264,26.002 C68.471996,26.002 67.8523356,26.3283301 67.405,26.981 C66.9576644,27.6336699 66.734,28.5099945 66.734,29.61 C66.734,30.6953388 66.9576644,31.5643301 67.405,32.217 C67.8523356,32.8696699 68.471996,33.196 69.264,33.196 Z M87.568,35.264 C86.5999952,35.264 85.7016708,35.1026683 84.873,34.78 C84.0443292,34.4573317 83.3256697,33.9806698 82.717,33.35 C82.1083303,32.7193302 81.635335,31.9420046 81.298,31.018 C80.960665,30.0939954 80.792,29.0380059 80.792,27.85 C80.792,26.6766608 80.9679982,25.624338 81.32,24.693 C81.6720018,23.761662 82.1523303,22.9733366 82.761,22.328 C83.3696697,21.6826634 84.0883292,21.191335 84.917,20.854 C85.7456708,20.516665 86.6366619,20.348 87.59,20.348 C88.6166718,20.348 89.4856631,20.5349981 90.197,20.909 C90.9083369,21.2830019 91.4913311,21.7046643 91.946,22.174 L90.582,23.824 C90.2153315,23.4719982 89.8083356,23.1750012 89.361,22.933 C88.9136644,22.6909988 88.35267,22.57 87.678,22.57 C87.0326634,22.57 86.4496693,22.6909988 85.929,22.933 C85.4083307,23.1750012 84.9610019,23.5196644 84.587,23.967 C84.2129981,24.4143356 83.9233344,24.9606634 83.718,25.606 C83.5126656,26.2513366 83.41,26.9773293 83.41,27.784 C83.41,29.4266749 83.7803296,30.713662 84.521,31.645 C85.2616704,32.576338 86.3579927,33.042 87.81,33.042 C88.2206687,33.042 88.6093315,32.9870005 88.976,32.877 C89.3426685,32.7669995 89.6433322,32.6093344 89.878,32.404 L89.878,29.302 L87.15,29.302 L87.15,27.212 L92.166,27.212 L92.166,33.548 C91.6819976,34.0320024 91.0403373,34.4389983 90.241,34.769 C89.4416627,35.0990016 88.5506716,35.264 87.568,35.264 Z M98.348,35.264 C97.1893275,35.264 96.3460026,34.8936704 95.818,34.153 C95.2899974,33.4123296 95.026,32.3526736 95.026,30.974 L95.026,24.198 L97.556,24.198 L97.556,30.644 C97.556,31.5386711 97.6879987,32.1693315 97.952,32.536 C98.2160013,32.9026685 98.6413304,33.086 99.228,33.086 C99.6973357,33.086 100.111665,32.9686678 100.471,32.734 C100.830335,32.4993322 101.215331,32.1180026 101.626,31.59 L101.626,24.198 L104.156,24.198 L104.156,35 L102.088,35 L101.89,33.416 L101.824,33.416 C101.354664,33.9733361 100.845003,34.420665 100.295,34.758 C99.7449972,35.095335 99.0960037,35.264 98.348,35.264 Z M107.368,35 L107.368,24.198 L109.898,24.198 L109.898,35 L107.368,35 Z M108.644,22.306 C108.189331,22.306 107.815335,22.1740013 107.522,21.91 C107.228665,21.6459987 107.082,21.3013355 107.082,20.876 C107.082,20.4506645 107.228665,20.1023347 107.522,19.831 C107.815335,19.5596653 108.189331,19.424 108.644,19.424 C109.098669,19.424 109.472665,19.5596653 109.766,19.831 C110.059335,20.1023347 110.206,20.4506645 110.206,20.876 C110.206,21.3013355 110.059335,21.6459987 109.766,21.91 C109.472665,22.1740013 109.098669,22.306 108.644,22.306 Z M116.916,35.264 C115.551993,35.264 114.470337,34.7690049 113.671,33.779 C112.871663,32.788995 112.472,31.3993423 112.472,29.61 C112.472,28.7299956 112.600332,27.9380035 112.857,27.234 C113.113668,26.5299965 113.454665,25.9360024 113.88,25.452 C114.305335,24.9679976 114.792997,24.5940013 115.343,24.33 C115.893003,24.0659987 116.46133,23.934 117.048,23.934 C117.664003,23.934 118.184665,24.0403323 118.61,24.253 C119.035335,24.4656677 119.460665,24.7553315 119.886,25.122 L119.798,23.384 L119.798,19.468 L122.328,19.468 L122.328,35 L120.238,35 L120.062,33.834 L119.974,33.834 C119.577998,34.230002 119.116003,34.5673319 118.588,34.846 C118.059997,35.1246681 117.50267,35.264 116.916,35.264 Z M117.532,33.174 C118.338671,33.174 119.093996,32.7706707 119.798,31.964 L119.798,26.926 C119.416665,26.588665 119.046335,26.3540007 118.687,26.222 C118.327665,26.0899993 117.964668,26.024 117.598,26.024 C116.893996,26.024 116.300002,26.3319969 115.816,26.948 C115.331998,27.5640031 115.09,28.4439943 115.09,29.588 C115.09,30.7613392 115.298998,31.6523303 115.717,32.261 C116.135002,32.8696697 116.739996,33.174 117.532,33.174 Z M130.16,35.264 C129.411996,35.264 128.715337,35.1356679 128.07,34.879 C127.424663,34.622332 126.860002,34.2520024 126.376,33.768 C125.891998,33.2839976 125.514335,32.6936702 125.243,31.997 C124.971665,31.3003299 124.836,30.5046711 124.836,29.61 C124.836,28.7299956 124.975332,27.9380035 125.254,27.234 C125.532668,26.5299965 125.902998,25.9360024 126.365,25.452 C126.827002,24.9679976 127.358664,24.5940013 127.96,24.33 C128.561336,24.0659987 129.17733,23.934 129.808,23.934 C130.541337,23.934 131.186664,24.0586654 131.744,24.308 C132.301336,24.5573346 132.766998,24.9093311 133.141,25.364 C133.515002,25.8186689 133.797332,26.3613302 133.988,26.992 C134.178668,27.6226698 134.274,28.3119963 134.274,29.06 C134.274,29.3093346 134.263,29.5439989 134.241,29.764 C134.219,29.9840011 134.193333,30.1599993 134.164,30.292 L127.3,30.292 C127.417334,31.2600048 127.758331,32.0043307 128.323,32.525 C128.887669,33.0456693 129.609996,33.306 130.49,33.306 C130.959336,33.306 131.395665,33.236334 131.799,33.097 C132.202335,32.957666 132.601998,32.7633346 132.998,32.514 L133.856,34.098 C133.342664,34.435335 132.77067,34.7139989 132.14,34.934 C131.50933,35.1540011 130.849337,35.264 130.16,35.264 Z M127.278,28.576 L132.074,28.576 C132.074,27.7399958 131.894335,27.083669 131.535,26.607 C131.175665,26.130331 130.622004,25.892 129.874,25.892 C129.228663,25.892 128.664002,26.1193311 128.18,26.574 C127.695998,27.0286689 127.395334,27.6959956 127.278,28.576 Z" id="Go-to-Guide" fill="#FFFFFF"></path>
                <path d="M160.778226,21.8915912 C160.997906,21.6719567 161.354045,21.6719567 161.573725,21.8915912 L167.751872,28.0696008 C167.971507,28.2893268 167.971507,28.6454661 167.751872,28.8651464 L161.573817,35.0432017 C161.354091,35.2628362 160.997952,35.2628362 160.778271,35.0432017 L159.858306,34.1232362 C159.635467,33.9004432 159.639129,33.5380326 159.866454,33.3197714 L163.650045,29.6861436 L147.488508,29.6861436 C147.17787,29.6861436 146.926009,29.4342826 146.926009,29.1236449 L146.926009,27.811148 C146.926009,27.5005103 147.17787,27.2486494 147.488508,27.2486494 L163.650045,27.2486494 L159.866362,23.6150216 C159.639129,23.3967604 159.635467,23.0343497 159.85826,22.8115567 L160.778226,21.8915912 Z" id="long-arrow-right" fill="#FFFFFF"></path>
            </g>
        </g>
    </g>
</svg>