<?xml version="1.0" encoding="UTF-8"?>
<svg width="215px" height="55px" viewBox="0 0 215 55" version="1.1" xmlns="http://www.w3.org/2000/svg" xmlns:xlink="http://www.w3.org/1999/xlink">
    <!-- Generator: Sketch 52.6 (67491) - http://www.bohemiancoding.com/sketch -->
    <title>button-api</title>
    <desc>Created with Sketch.</desc>
    <g id="Page-1" stroke="none" stroke-width="1" fill="none" fill-rule="evenodd">
        <g id="assets-copy" transform="translate(-412.000000, -936.000000)">
            <g id="button-api" transform="translate(412.000000, 936.000000)">
                <rect id="Rectangle" fill="#18C595" fill-rule="nonzero" x="0.926009395" y="0.580188187" width="214" height="54" rx="8"></rect>
                <path d="M32.854,35.264 C31.8859952,35.264 30.9876708,35.1026683 30.159,34.78 C29.3303292,34.4573317 28.6116697,33.9806698 28.003,33.35 C27.3943303,32.7193302 26.921335,31.9420046 26.584,31.018 C26.246665,30.0939954 26.078,29.0380059 26.078,27.85 C26.078,26.6766608 26.2539982,25.624338 26.606,24.693 C26.9580018,23.761662 27.4383303,22.9733366 28.047,22.328 C28.6556697,21.6826634 29.3743292,21.191335 30.203,20.854 C31.0316708,20.516665 31.9226619,20.348 32.876,20.348 C33.9026718,20.348 34.7716631,20.5349981 35.483,20.909 C36.1943369,21.2830019 36.7773311,21.7046643 37.232,22.174 L35.868,23.824 C35.5013315,23.4719982 35.0943356,23.1750012 34.647,22.933 C34.1996644,22.6909988 33.63867,22.57 32.964,22.57 C32.3186634,22.57 31.7356693,22.6909988 31.215,22.933 C30.6943307,23.1750012 30.2470019,23.5196644 29.873,23.967 C29.4989981,24.4143356 29.2093344,24.9606634 29.004,25.606 C28.7986656,26.2513366 28.696,26.9773293 28.696,27.784 C28.696,29.4266749 29.0663296,30.713662 29.807,31.645 C30.5476704,32.576338 31.6439927,33.042 33.096,33.042 C33.5066687,33.042 33.8953315,32.9870005 34.262,32.877 C34.6286685,32.7669995 34.9293322,32.6093344 35.164,32.404 L35.164,29.302 L32.436,29.302 L32.436,27.212 L37.452,27.212 L37.452,33.548 C36.9679976,34.0320024 36.3263373,34.4389983 35.527,34.769 C34.7276627,35.0990016 33.8366716,35.264 32.854,35.264 Z M44.844,35.264 C44.16933,35.264 43.5240031,35.1393346 42.908,34.89 C42.2919969,34.6406654 41.745669,34.2740024 41.269,33.79 C40.792331,33.3059976 40.4146681,32.7120035 40.136,32.008 C39.8573319,31.3039965 39.718,30.5046711 39.718,29.61 C39.718,28.7153289 39.8573319,27.9160035 40.136,27.212 C40.4146681,26.5079965 40.792331,25.9140024 41.269,25.43 C41.745669,24.9459976 42.2919969,24.575668 42.908,24.319 C43.5240031,24.0623321 44.16933,23.934 44.844,23.934 C45.51867,23.934 46.1676636,24.0623321 46.791,24.319 C47.4143364,24.575668 47.9606643,24.9459976 48.43,25.43 C48.8993357,25.9140024 49.2769986,26.5079965 49.563,27.212 C49.8490014,27.9160035 49.992,28.7153289 49.992,29.61 C49.992,30.5046711 49.8490014,31.3039965 49.563,32.008 C49.2769986,32.7120035 48.8993357,33.3059976 48.43,33.79 C47.9606643,34.2740024 47.4143364,34.6406654 46.791,34.89 C46.1676636,35.1393346 45.51867,35.264 44.844,35.264 Z M44.844,33.196 C45.636004,33.196 46.2593311,32.8696699 46.714,32.217 C47.1686689,31.5643301 47.396,30.6953388 47.396,29.61 C47.396,28.5099945 47.1686689,27.6336699 46.714,26.981 C46.2593311,26.3283301 45.636004,26.002 44.844,26.002 C44.051996,26.002 43.4323356,26.3283301 42.985,26.981 C42.5376644,27.6336699 42.314,28.5099945 42.314,29.61 C42.314,30.6953388 42.5376644,31.5643301 42.985,32.217 C43.4323356,32.8696699 44.051996,33.196 44.844,33.196 Z M60.706,35.264 C60.0753302,35.264 59.5436688,35.1686676 59.111,34.978 C58.6783312,34.7873324 58.3263347,34.5196684 58.055,34.175 C57.7836653,33.8303316 57.5856673,33.419669 57.461,32.943 C57.3363327,32.4663309 57.274,31.9346696 57.274,31.348 L57.274,26.2 L55.734,26.2 L55.734,24.308 L57.406,24.198 L57.714,21.25 L59.826,21.25 L59.826,24.198 L62.576,24.198 L62.576,26.2 L59.826,26.2 L59.826,31.348 C59.826,32.6093396 60.3319949,33.24 61.344,33.24 C61.5346676,33.24 61.728999,33.2180002 61.927,33.174 C62.125001,33.1299998 62.3046659,33.0713337 62.466,32.998 L62.906,34.868 C62.6126652,34.9706672 62.2790019,35.0623329 61.905,35.143 C61.5309981,35.2236671 61.1313355,35.264 60.706,35.264 Z M69.264,35.264 C68.58933,35.264 67.9440031,35.1393346 67.328,34.89 C66.7119969,34.6406654 66.165669,34.2740024 65.689,33.79 C65.2123309,33.3059976 64.8346681,32.7120035 64.556,32.008 C64.2773319,31.3039965 64.138,30.5046711 64.138,29.61 C64.138,28.7153289 64.2773319,27.9160035 64.556,27.212 C64.8346681,26.5079965 65.2123309,25.9140024 65.689,25.43 C66.165669,24.9459976 66.7119969,24.575668 67.328,24.319 C67.9440031,24.0623321 68.58933,23.934 69.264,23.934 C69.93867,23.934 70.5876636,24.0623321 71.211,24.319 C71.8343364,24.575668 72.3806643,24.9459976 72.85,25.43 C73.3193357,25.9140024 73.6969986,26.5079965 73.983,27.212 C74.2690014,27.9160035 74.412,28.7153289 74.412,29.61 C74.412,30.5046711 74.2690014,31.3039965 73.983,32.008 C73.6969986,32.7120035 73.3193357,33.3059976 72.85,33.79 C72.3806643,34.2740024 71.8343364,34.6406654 71.211,34.89 C70.5876636,35.1393346 69.93867,35.264 69.264,35.264 Z M69.264,33.196 C70.056004,33.196 70.6793311,32.8696699 71.134,32.217 C71.5886689,31.5643301 71.816,30.6953388 71.816,29.61 C71.816,28.5099945 71.5886689,27.6336699 71.134,26.981 C70.6793311,26.3283301 70.056004,26.002 69.264,26.002 C68.471996,26.002 67.8523356,26.3283301 67.405,26.981 C66.9576644,27.6336699 66.734,28.5099945 66.734,29.61 C66.734,30.6953388 66.9576644,31.5643301 67.405,32.217 C67.8523356,32.8696699 68.471996,33.196 69.264,33.196 Z M84.488,27.344 L83.982,29.104 L87.656,29.104 L87.15,27.344 C86.9153322,26.5813295 86.6916677,25.7966707 86.479,24.99 C86.2663323,24.1833293 86.0573344,23.384004 85.852,22.592 L85.764,22.592 C85.5586656,23.3986707 85.3533344,24.2016627 85.148,25.001 C84.9426656,25.8003373 84.7226678,26.5813295 84.488,27.344 Z M79.67,35 L84.356,20.612 L87.348,20.612 L92.034,35 L89.35,35 L88.228,31.106 L83.388,31.106 L82.266,35 L79.67,35 Z M93.816,35 L93.816,20.612 L98.348,20.612 C99.140004,20.612 99.8769966,20.6853326 100.559,20.832 C101.241003,20.9786674 101.831331,21.2279982 102.33,21.58 C102.828669,21.9320018 103.217332,22.3903305 103.496,22.955 C103.774668,23.5196695 103.914,24.2199958 103.914,25.056 C103.914,25.848004 103.774668,26.5373304 103.496,27.124 C103.217332,27.7106696 102.832336,28.1983314 102.341,28.587 C101.849664,28.9756686 101.270337,29.2616657 100.603,29.445 C99.9356633,29.6283343 99.2133372,29.72 98.436,29.72 L96.368,29.72 L96.368,35 L93.816,35 Z M96.368,27.674 L98.238,27.674 C100.350011,27.674 101.406,26.8013421 101.406,25.056 C101.406,24.1466621 101.131003,23.5196684 100.581,23.175 C100.030997,22.8303316 99.220672,22.658 98.15,22.658 L96.368,22.658 L96.368,27.674 Z M106.62,35 L106.62,20.612 L109.172,20.612 L109.172,35 L106.62,35 Z M117.224,35 L117.224,20.612 L121.074,20.612 C123.274011,20.612 124.989994,21.2059941 126.222,22.394 C127.454006,23.5820059 128.07,25.3639881 128.07,27.74 C128.07,28.9280059 127.912335,29.9766621 127.597,30.886 C127.281665,31.7953379 126.827003,32.5543303 126.233,33.163 C125.638997,33.7716697 124.920338,34.2299985 124.077,34.538 C123.233662,34.8460015 122.276672,35 121.206,35 L117.224,35 Z M119.776,32.932 L120.898,32.932 C122.364674,32.932 123.490329,32.5103376 124.275,31.667 C125.059671,30.8236625 125.452,29.5146755 125.452,27.74 C125.452,25.9799912 125.056004,24.6966707 124.264,23.89 C123.471996,23.0833293 122.350007,22.68 120.898,22.68 L119.776,22.68 L119.776,32.932 Z M135.176,35.264 C134.50133,35.264 133.856003,35.1393346 133.24,34.89 C132.623997,34.6406654 132.077669,34.2740024 131.601,33.79 C131.124331,33.3059976 130.746668,32.7120035 130.468,32.008 C130.189332,31.3039965 130.05,30.5046711 130.05,29.61 C130.05,28.7153289 130.189332,27.9160035 130.468,27.212 C130.746668,26.5079965 131.124331,25.9140024 131.601,25.43 C132.077669,24.9459976 132.623997,24.575668 133.24,24.319 C133.856003,24.0623321 134.50133,23.934 135.176,23.934 C135.85067,23.934 136.499664,24.0623321 137.123,24.319 C137.746336,24.575668 138.292664,24.9459976 138.762,25.43 C139.231336,25.9140024 139.608999,26.5079965 139.895,27.212 C140.181001,27.9160035 140.324,28.7153289 140.324,29.61 C140.324,30.5046711 140.181001,31.3039965 139.895,32.008 C139.608999,32.7120035 139.231336,33.3059976 138.762,33.79 C138.292664,34.2740024 137.746336,34.6406654 137.123,34.89 C136.499664,35.1393346 135.85067,35.264 135.176,35.264 Z M135.176,33.196 C135.968004,33.196 136.591331,32.8696699 137.046,32.217 C137.500669,31.5643301 137.728,30.6953388 137.728,29.61 C137.728,28.5099945 137.500669,27.6336699 137.046,26.981 C136.591331,26.3283301 135.968004,26.002 135.176,26.002 C134.383996,26.002 133.764336,26.3283301 133.317,26.981 C132.869664,27.6336699 132.646,28.5099945 132.646,29.61 C132.646,30.6953388 132.869664,31.5643301 133.317,32.217 C133.764336,32.8696699 134.383996,33.196 135.176,33.196 Z M147.342,35.264 C146.608663,35.264 145.923003,35.1393346 145.285,34.89 C144.646997,34.6406654 144.093336,34.2740024 143.624,33.79 C143.154664,33.3059976 142.788001,32.7120035 142.524,32.008 C142.259999,31.3039965 142.128,30.5046711 142.128,29.61 C142.128,28.7153289 142.274665,27.9160035 142.568,27.212 C142.861335,26.5079965 143.257331,25.9140024 143.756,25.43 C144.254669,24.9459976 144.83033,24.575668 145.483,24.319 C146.13567,24.0623321 146.82133,23.934 147.54,23.934 C148.244004,23.934 148.848997,24.0513322 149.355,24.286 C149.861003,24.5206678 150.311998,24.806665 150.708,25.144 L149.476,26.794 C149.182665,26.5446654 148.893001,26.350334 148.607,26.211 C148.320999,26.071666 148.009335,26.002 147.672,26.002 C146.791996,26.002 146.080669,26.3283301 145.538,26.981 C144.995331,27.6336699 144.724,28.5099945 144.724,29.61 C144.724,30.6953388 144.991664,31.5643301 145.527,32.217 C146.062336,32.8696699 146.755329,33.196 147.606,33.196 C148.031335,33.196 148.430998,33.1043343 148.805,32.921 C149.179002,32.7376657 149.519998,32.5213346 149.828,32.272 L150.862,33.944 C150.348664,34.3840022 149.78767,34.7139989 149.179,34.934 C148.57033,35.1540011 147.958003,35.264 147.342,35.264 Z M156.01,35.264 C155.261996,35.264 154.525004,35.1210014 153.799,34.835 C153.072996,34.5489986 152.446003,34.1933355 151.918,33.768 L153.106,32.14 C153.590002,32.5213352 154.070331,32.8183323 154.547,33.031 C155.023669,33.2436677 155.540664,33.35 156.098,33.35 C156.68467,33.35 157.117332,33.2290012 157.396,32.987 C157.674668,32.7449988 157.814,32.4333352 157.814,32.052 C157.814,31.8319989 157.748001,31.6376675 157.616,31.469 C157.483999,31.3003325 157.308001,31.1500007 157.088,31.018 C156.867999,30.8859993 156.618668,30.7650005 156.34,30.655 C156.061332,30.5449994 155.782668,30.4313339 155.504,30.314 C155.151998,30.1819993 154.792668,30.0280009 154.426,29.852 C154.059331,29.6759991 153.733001,29.4633346 153.447,29.214 C153.160999,28.9646654 152.926334,28.6750016 152.743,28.345 C152.559666,28.0149984 152.468,27.6226689 152.468,27.168 C152.468,26.2146619 152.819996,25.4373363 153.524,24.836 C154.228004,24.2346637 155.188661,23.934 156.406,23.934 C157.154004,23.934 157.828664,24.0659987 158.43,24.33 C159.031336,24.5940013 159.551998,24.894665 159.992,25.232 L158.826,26.772 C158.444665,26.4933319 158.059669,26.2696675 157.671,26.101 C157.282331,25.9323325 156.875335,25.848 156.45,25.848 C155.907331,25.848 155.507668,25.9616655 155.251,26.189 C154.994332,26.4163345 154.866,26.698665 154.866,27.036 C154.866,27.2560011 154.928333,27.4429992 155.053,27.597 C155.177667,27.7510008 155.342666,27.8866661 155.548,28.004 C155.753334,28.1213339 155.991665,28.2313328 156.263,28.334 C156.534335,28.4366672 156.816665,28.5393328 157.11,28.642 C157.476669,28.7740007 157.843332,28.9243325 158.21,29.093 C158.576669,29.2616675 158.910332,29.4706654 159.211,29.72 C159.511668,29.9693346 159.753666,30.2736649 159.937,30.633 C160.120334,30.9923351 160.212,31.4213308 160.212,31.92 C160.212,32.3893357 160.120334,32.8256647 159.937,33.229 C159.753666,33.6323353 159.486002,33.9843318 159.134,34.285 C158.781998,34.5856682 158.342003,34.8239991 157.814,35 C157.285997,35.1760009 156.68467,35.264 156.01,35.264 Z" id="Go-to-API-Docs" fill="#FFFFFF"></path>
                <path d="M188.778226,21.8915912 C188.997906,21.6719567 189.354045,21.6719567 189.573725,21.8915912 L195.751872,28.0696008 C195.971507,28.2893268 195.971507,28.6454661 195.751872,28.8651464 L189.573817,35.0432017 C189.354091,35.2628362 188.997952,35.2628362 188.778271,35.0432017 L187.858306,34.1232362 C187.635467,33.9004432 187.639129,33.5380326 187.866454,33.3197714 L191.650045,29.6861436 L175.488508,29.6861436 C175.17787,29.6861436 174.926009,29.4342826 174.926009,29.1236449 L174.926009,27.811148 C174.926009,27.5005103 175.17787,27.2486494 175.488508,27.2486494 L191.650045,27.2486494 L187.866362,23.6150216 C187.639129,23.3967604 187.635467,23.0343497 187.85826,22.8115567 L188.778226,21.8915912 Z" id="long-arrow-right" fill="#FFFFFF"></path>
            </g>
        </g>
    </g>
</svg>