<?xml version="1.0" encoding="UTF-8"?>
<svg width="44px" height="30px" viewBox="0 0 44 30" version="1.1" xmlns="http://www.w3.org/2000/svg" xmlns:xlink="http://www.w3.org/1999/xlink">
    <!-- Generator: Sketch 52.6 (67491) - http://www.bohemiancoding.com/sketch -->
    <title>icon-nuxt</title>
    <desc>Created with Sketch.</desc>
    <g id="Page-1" stroke="none" stroke-width="1" fill="none" fill-rule="evenodd">
        <g id="landing-6" transform="translate(-1150.000000, -2625.000000)">
            <g id="Group-17" transform="translate(1129.349243, 2601.646047)">
                <g id="Group-16" transform="translate(0.581568, 0.915434)">
                    <g id="icon-nuxt" transform="translate(20.113527, 23.124955)">
                        <path d="M19.2663423,1.57741664 C18.0431241,-0.525792892 14.9850215,-0.525830856 13.7618033,1.57741664 L0.430519979,24.4995191 C-0.792709661,26.6027666 0.736322644,29.231807 3.18277433,29.231807 L13.589943,29.231807 C12.5445453,28.3181802 12.1574326,26.7377265 12.9485136,25.3817123 L23.0450279,8.07458436 L19.2663423,1.57741664 Z" id="Path" fill="#80EEC0"></path>
                        <path d="M27.7133475,6.60551523 C28.7256792,4.88467291 31.2564703,4.88467291 32.2688019,6.60551523 L43.3014174,25.3599213 C44.3139009,27.0807636 43.0485812,29.231807 41.0239939,29.231807 L18.9582695,29.231807 C16.9336441,29.231807 15.6682106,27.0807636 16.6805422,25.3599213 L27.7133475,6.60551523 Z" id="Path" fill="#00DC82"></path>
                    </g>
                </g>
            </g>
        </g>
    </g>
</svg>