<?xml version="1.0" encoding="UTF-8"?>
<svg width="45px" height="46px" viewBox="0 0 45 46" version="1.1" xmlns="http://www.w3.org/2000/svg" xmlns:xlink="http://www.w3.org/1999/xlink">
    <!-- Generator: Sketch 52.6 (67491) - http://www.bohemiancoding.com/sketch -->
    <title>icon-laravel</title>
    <desc>Created with Sketch.</desc>
    <g id="Page-1" stroke="none" stroke-width="1" fill="none" fill-rule="evenodd">
        <g id="landing-6" transform="translate(-1150.000000, -2393.000000)" fill="#FF2D20" fill-rule="nonzero">
            <g id="Group-20" transform="translate(1129.349243, 2373.601799)">
                <g id="Group-8" transform="translate(0.918432, 0.576095)">
                    <g id="icon-laravel" transform="translate(20.658169, 19.149328)">
                        <path d="M43.9751883,10.2471389 C43.9915034,10.3075259 44,10.3697885 44,10.4323405 L44,20.1549812 C44,20.4089885 43.8641172,20.6435881 43.643775,20.7699568 L35.4833851,25.4682288 L35.4833851,34.7805903 C35.4833851,35.0340241 35.348693,35.267963 35.1289323,35.3955659 L18.0948161,45.201503 C18.0558262,45.2236563 18.013292,45.2378345 17.9707576,45.2528988 C17.9548072,45.2582156 17.9397431,45.267963 17.9229065,45.2723935 C17.8038315,45.3037509 17.6786674,45.3037509 17.5595924,45.2723935 C17.5400974,45.2670768 17.5223749,45.2564432 17.503766,45.2493542 C17.4647763,45.2351761 17.4240141,45.2227703 17.3867966,45.201503 L0.356225078,35.3955659 C0.136017028,35.2690626 0,35.0345483 0,34.7805903 L0,5.61266832 C0,5.54886683 0.00886132034,5.48683759 0.0248116969,5.4265806 C0.0301284892,5.40619956 0.0425343377,5.38759079 0.0496233939,5.36720975 C0.0629153743,5.32999222 0.0753212228,5.29188854 0.0948161277,5.25732938 C0.108108108,5.23428995 0.127603013,5.21568118 0.143553389,5.194414 C0.163934426,5.16605779 0.182543199,5.13681542 0.206468764,5.11200374 C0.226849801,5.0916227 0.253433761,5.07655845 0.276473194,5.0588358 C0.302171023,5.03756865 0.325210456,5.01452921 0.354452813,4.9976927 L0.355338945,4.9976927 L8.87106779,0.0947241563 C9.09050146,-0.0315452101 9.36053974,-0.0315452101 9.57997341,0.0947241563 L18.0957023,4.9976927 L18.0974745,4.9976927 C18.1258308,5.01541533 18.1497563,5.03756865 18.1754542,5.05794967 C18.1984935,5.07567232 18.2241914,5.0916227 18.2445725,5.1111176 C18.2693842,5.13681542 18.2871067,5.16605779 18.3083739,5.194414 C18.3234382,5.21568118 18.3438193,5.23428995 18.3562251,5.25732938 C18.3766062,5.29277466 18.3881258,5.32999222 18.4023039,5.36720975 C18.4093931,5.38759079 18.4217988,5.40619956 18.4271156,5.42746674 C18.4434308,5.48785373 18.4517721,5.55011636 18.4519273,5.61266832 L18.4519273,23.8306568 L25.5480727,19.744702 L25.5480727,10.4314543 C25.5480727,10.3694251 25.556934,10.3065097 25.5728844,10.2471389 C25.5790874,10.2258717 25.5906069,10.2072629 25.5976961,10.1868819 C25.6118742,10.1496643 25.62428,10.1115607 25.6437749,10.0770015 C25.6570669,10.0539621 25.6765618,10.0353533 25.6916261,10.0140861 C25.7128932,9.98572991 25.7306158,9.95648756 25.7554275,9.93167586 C25.7758086,9.91129482 25.8015065,9.89623057 25.8245458,9.87850794 C25.8511297,9.85724077 25.8741692,9.83420133 25.9025255,9.81736484 L25.9034115,9.81736484 L34.4200266,4.91439628 C34.6394116,4.78794499 34.9095472,4.78794499 35.1289323,4.91439628 L43.644661,9.81736484 C43.6747895,9.83508747 43.697829,9.85724077 43.7244129,9.87762181 C43.7465662,9.89534446 43.7722641,9.91129482 43.7926452,9.93078972 C43.8174567,9.95648756 43.8351794,9.98572991 43.8564466,10.0140861 C43.8723969,10.0353533 43.8918918,10.0539621 43.9042978,10.0770015 C43.9246787,10.1115607 43.9361985,10.1496643 43.9503766,10.1868819 C43.9583518,10.2072629 43.9698715,10.2258717 43.9751883,10.2471389 Z M42.5804165,19.744702 L42.5804165,11.6596333 L39.6003544,13.375185 L35.4833851,15.7455881 L35.4833851,23.8306568 L42.5813027,19.744702 L42.5804165,19.744702 Z M34.0646876,34.3703112 L34.0646876,26.2799257 L30.0150642,28.5927304 L18.4510411,35.1926417 L18.4510411,43.3592345 L34.0646876,34.3703112 Z M1.41958352,6.8399612 L1.41958352,34.3703112 L17.0314577,43.3583485 L17.0314577,35.1935279 L8.87549845,30.5776661 L8.87284006,30.5758939 L8.86929553,30.5741215 C8.84182544,30.5581712 8.81878601,30.5351319 8.79308817,30.5156369 C8.77093487,30.4979142 8.74523703,30.4837361 8.72574213,30.4642412 L8.72396987,30.4615828 C8.70093044,30.4394295 8.68498006,30.4119594 8.66548516,30.3871477 C8.64776251,30.3632221 8.62649535,30.3428412 8.61231724,30.3180295 L8.61143111,30.3153711 C8.59548073,30.288787 8.58573327,30.2568863 8.57421355,30.2267579 C8.56269384,30.200174 8.5476296,30.1753622 8.54054054,30.147006 L8.54054054,30.1461198 C8.53167922,30.1124467 8.52990696,30.0770015 8.52636244,30.0424424 C8.52281789,30.0158585 8.51572884,29.9892744 8.51572884,29.9626905 L8.51572884,29.9609183 L8.51572884,10.925916 L4.39964554,8.55462668 L1.41958352,6.84084732 L1.41958352,6.8399612 Z M9.22640673,1.52848579 L2.13114755,5.61266832 L9.22463448,9.69685087 L16.3190075,5.61178221 L9.22463448,1.52848579 L9.22640673,1.52848579 Z M12.9162605,27.0171877 L17.0323438,24.6476706 L17.0323438,6.8399612 L14.0522818,8.55551281 L9.93531235,10.925916 L9.93531235,28.7336254 L12.9162605,27.0171877 Z M34.7744794,6.34815792 L27.6801063,10.4323405 L34.7744794,14.516523 L41.8679662,10.4314543 L34.7744794,6.34815792 Z M34.0646876,15.7455881 L29.9477183,13.375185 L26.9676562,11.6596333 L26.9676562,19.744702 L31.0837395,22.114219 L34.0646876,23.8306568 L34.0646876,15.7455881 Z M17.7403633,33.9653488 L28.1462118,28.0247198 L33.3478068,25.0561774 L26.2587505,20.9746532 L18.0965885,25.6738115 L10.65751,29.9564875 L17.7403633,33.9653488 Z" id="Shape"></path>
                    </g>
                </g>
            </g>
        </g>
    </g>
</svg>