<?xml version="1.0" encoding="UTF-8"?>
<svg width="147px" height="41px" viewBox="0 0 147 41" version="1.1" xmlns="http://www.w3.org/2000/svg" xmlns:xlink="http://www.w3.org/1999/xlink">
    <!-- Generator: Sketch 52.6 (67491) - http://www.bohemiancoding.com/sketch -->
    <title>logo-horizontal</title>
    <desc>Created with Sketch.</desc>
    <defs>
        <linearGradient x1="100%" y1="0%" x2="1.11022302e-14%" y2="100%" id="linearGradient-1">
            <stop stop-color="#0BBE7E" offset="0%"></stop>
            <stop stop-color="#0BBE99" offset="30.4042007%"></stop>
            <stop stop-color="#13D1C7" offset="100%"></stop>
        </linearGradient>
    </defs>
    <g id="Page-1" stroke="none" stroke-width="1" fill="none" fill-rule="evenodd">
        <g id="logo-horizontal">
            <path d="M66.8888843,9.7536005 L69.4682522,9.7536005 L61.82088,27.9387923 L61.2376059,27.9387923 L53.4346939,9.7536005 L56.0399851,9.7536005 L61.4838772,22.4689769 L66.8888843,9.7536005 Z M78.7358303,27.8610224 L78.7358303,26.3445096 C78.2346441,26.8889015 77.662177,27.3123111 77.018412,27.6147511 C76.3746469,27.917191 75.7330518,28.0684087 75.0936073,28.0684087 C74.341828,28.0684087 73.6483867,27.8804667 73.0132628,27.5045771 C72.3781389,27.1286874 71.8985627,26.6188677 71.5745199,25.9751026 C71.2504771,25.3313376 71.0884581,24.2620123 71.0884581,22.7670948 L71.0884581,15.9363065 L73.447478,15.9363065 L73.447478,22.7411715 C73.447478,23.9941371 73.626779,24.8690395 73.9853864,25.3659052 C74.3439938,25.8627708 74.9726274,26.1111999 75.8713062,26.1111999 C76.9946546,26.1111999 77.9494864,25.5624957 78.7358303,24.4650707 L78.7358303,15.9363065 L81.0948502,15.9363065 L81.0948502,27.8610224 L78.7358303,27.8610224 Z M94.5749638,22.1060508 L86.1887777,22.1060508 C86.2492657,23.2466815 86.6316305,24.1539878 87.3358836,24.8279968 C88.0401366,25.5020059 88.9496031,25.8390053 90.0643104,25.8390053 C91.6197159,25.8390053 93.0541239,25.3551087 94.3675775,24.3873008 L94.3675775,26.6944741 C93.6417216,27.178378 92.9223573,27.5240185 92.2094631,27.7314059 C91.4965689,27.9387933 90.660551,28.0424854 89.7013843,28.0424854 C88.3879307,28.0424854 87.3250863,27.7702936 86.5128189,27.2259016 C85.7005516,26.6815097 85.0503155,25.9491839 84.562091,25.0289023 C84.0738665,24.1086208 83.8297579,23.043616 83.8297579,21.8338562 C83.8297579,20.0192164 84.3438981,18.5437636 85.3721939,17.4074535 C86.4004898,16.2711433 87.7355262,15.7029968 89.3773431,15.7029968 C90.958672,15.7029968 92.2202598,16.2560216 93.1621442,17.3620877 C94.1040287,18.4681539 94.5749638,19.9500874 94.5749638,21.8079329 L94.5749638,22.1060508 Z M86.2406243,20.6932312 L92.2418672,20.6932312 C92.1813792,19.7513467 91.9005463,19.0255017 91.3993601,18.5156744 C90.8981739,18.005847 90.224175,17.7509371 89.3773431,17.7509371 C88.5305112,17.7509371 87.83707,18.005847 87.2969986,18.5156744 C86.7569273,19.0255017 86.404806,19.7513467 86.2406243,20.6932312 Z M97.400603,15.9363065 L97.400603,15.2234158 C97.400603,13.3050824 97.8088909,11.8749949 98.6254787,10.9331104 C99.4420666,9.991226 100.420661,9.52029084 101.561292,9.52029084 C102.053837,9.52029084 102.637105,9.59805995 103.311114,9.7536005 L103.311114,12.0607738 C102.930904,11.9225155 102.567982,11.8533874 102.222336,11.8533874 C101.297734,11.8533874 100.656139,12.0996563 100.297531,12.5922014 C99.9389239,13.0847464 99.7596229,13.9618092 99.7596229,15.2234158 L99.7596229,15.9363065 L101.885333,15.9363065 L101.885333,18.0620167 L99.7596229,18.0620167 L99.7596229,27.8610224 L97.400603,27.8610224 L97.400603,18.0620167 L95.6896655,18.0620167 L95.6896655,15.9363065 L97.400603,15.9363065 Z M109.467897,15.9103832 C111.282537,15.9103832 112.790393,16.4958117 113.991512,17.6666864 C115.192631,18.8375611 115.793181,20.3086934 115.793181,22.0801275 C115.793181,23.7997147 115.18399,25.2276419 113.965589,26.3639521 C112.747188,27.5002622 111.213408,28.0684087 109.364204,28.0684087 C107.575488,28.0684087 106.080592,27.4916212 104.879474,26.3380288 C103.678355,25.1844364 103.077805,23.7435476 103.077805,22.0153192 C103.077805,20.2698086 103.684836,18.8159583 104.898916,17.6537248 C106.112997,16.4914912 107.635975,15.9103832 109.467897,15.9103832 Z M109.338281,18.0360934 C108.206291,18.0360934 107.277382,18.4076569 106.551526,19.1507951 C105.82567,19.8939333 105.462748,20.8401241 105.462748,21.989396 C105.462748,23.1300267 105.834311,24.0610957 106.57745,24.782631 C107.320588,25.5041664 108.27542,25.8649286 109.441974,25.8649286 C110.599887,25.8649286 111.548238,25.4998459 112.287055,24.7696694 C113.025873,24.0394929 113.395276,23.1041034 113.395276,21.9634727 C113.395276,20.8314831 113.010751,19.8939333 112.24169,19.1507951 C111.472628,18.4076569 110.504835,18.0360934 109.338281,18.0360934 Z M120.938955,15.9363065 L120.938955,18.6712141 L121.068572,18.4638278 C122.209202,16.6232646 123.349816,15.7029968 124.490447,15.7029968 C125.380484,15.7029968 126.309393,16.1523294 127.277201,17.0510082 L126.032883,19.1248718 C125.211974,18.3471691 124.451565,17.9583235 123.751633,17.9583235 C122.991212,17.9583235 122.332335,18.321246 121.774982,19.0471019 C121.217628,19.7729578 120.938955,20.6327385 120.938955,21.6264698 L120.938955,27.8610224 L118.566974,27.8610224 L118.566974,15.9363065 L120.938955,15.9363065 Z M138.696413,19.2026417 L138.696413,27.8610224 L136.324431,27.8610224 L136.324431,21.2246587 C136.324431,19.9025641 136.14729,18.980136 135.793004,18.4573469 C135.438717,17.9345579 134.820884,17.6731673 133.939488,17.6731673 C133.446943,17.6731673 132.99545,17.7855004 132.584996,18.0101701 C132.174542,18.2348398 131.705767,18.6323263 131.178657,19.2026417 L131.178657,27.8610224 L128.819637,27.8610224 L128.819637,15.9363065 L131.178657,15.9363065 L131.178657,17.5046658 C132.379776,16.3035471 133.554953,15.7029968 134.704225,15.7029968 C136.216425,15.7029968 137.387282,16.4202008 138.216832,17.8546303 C139.478438,16.4029185 140.796193,15.6770735 142.170134,15.6770735 C143.328047,15.6770735 144.280719,16.1004831 145.028178,16.947315 C145.775636,17.7941469 146.14936,19.0859782 146.14936,20.8228477 L146.14936,27.8610224 L143.79034,27.8610224 L143.79034,20.7969244 C143.79034,19.8031931 143.587276,19.042784 143.181143,18.5156744 C142.775009,17.9885647 142.191741,17.7250139 141.43132,17.7250139 C140.454871,17.7250139 139.543245,18.2175515 138.696413,19.2026417 Z" id="Vueform" fill="#1C1C1C" fill-rule="nonzero"></path>
            <g id="logo" transform="translate(0.265625, 0.037879)">
                <path d="M45.0849386,1.14862429 C44.9998921,1.01301722 44.8714656,0.945213687 44.6996591,0.945213687 L35.7881709,0.945213687 L22.4713946,24.1548618 L13.2990794,24.1548618 L22.3068798,39.8395958 C22.398079,39.9844228 22.5221251,40.0568363 22.6790178,40.0568363 C22.8359106,40.0568363 22.9611772,39.9829727 23.0548176,39.8352455 L45.0849386,1.59428077 C45.1699851,1.43278351 45.1699851,1.28423135 45.0849386,1.14862429 Z" id="Path-6" fill="url(#linearGradient-1)"></path>
                <path d="M0.27217506,1.14921686 C0.187483458,1.28521897 0.188885169,1.43513025 0.276380192,1.59895068 L11.4310255,20.9312996 L20.5653578,20.9312996 L25.4139561,12.5500378 L16.2516083,12.5500378 L14.4371074,9.32647551 L27.2028763,9.31866239 L32.0343245,0.945213687 L0.656767482,0.945213687 C0.485064136,0.945213687 0.356866662,1.01321474 0.27217506,1.14921686 Z" id="Path-7" fill="#35495E"></path>
            </g>
        </g>
    </g>
</svg>