<?xml version="1.0" encoding="UTF-8"?>
<svg width="46px" height="41px" viewBox="0 0 46 41" version="1.1" xmlns="http://www.w3.org/2000/svg" xmlns:xlink="http://www.w3.org/1999/xlink">
    <!-- Generator: Sketch 52.6 (67491) - http://www.bohemiancoding.com/sketch -->
    <title>logo</title>
    <desc>Created with Sketch.</desc>
    <defs>
        <linearGradient x1="100%" y1="0%" x2="1.11022302e-14%" y2="100%" id="linearGradient-1">
            <stop stop-color="#0BBE7E" offset="0%"></stop>
            <stop stop-color="#0BBE99" offset="30.4042007%"></stop>
            <stop stop-color="#13D1C7" offset="100%"></stop>
        </linearGradient>
    </defs>
    <g id="Page-1" stroke="none" stroke-width="1" fill="none" fill-rule="evenodd">
        <g id="logo">
            <path d="M45.3505636,1.18650329 C45.2655171,1.05089622 45.1370906,0.983092687 44.9652841,0.983092687 L36.0537959,0.983092687 L22.7370196,24.1927408 L13.5647044,24.1927408 L22.5725048,39.8774748 C22.663704,40.0223018 22.7877501,40.0947153 22.9446428,40.0947153 C23.1015356,40.0947153 23.2268022,40.0208517 23.3204426,39.8731245 L45.3505636,1.63215977 C45.4356101,1.47066251 45.4356101,1.32211035 45.3505636,1.18650329 Z" id="Path-6" fill="url(#linearGradient-1)"></path>
            <path d="M0.53780006,1.18709586 C0.453108458,1.32309797 0.454510169,1.47300925 0.542005192,1.63682968 L11.6966505,20.9691786 L20.8309828,20.9691786 L25.6795811,12.5879168 L16.5172333,12.5879168 L14.7027324,9.36435451 L27.4685013,9.35654139 L32.2999495,0.983092687 L0.922392482,0.983092687 C0.750689136,0.983092687 0.622491662,1.05109374 0.53780006,1.18709586 Z" id="Path-7" fill="#35495E"></path>
        </g>
    </g>
</svg>